Amatic-Bold.ufo
<glyph name="exclam" format="1">
  <advance width="286"/>
  <unicode hex="0021"/>
  <outline>
    <contour>
      <point x="210" y="26" type="curve" smooth="yes"/>
      <point x="210" y="-27"/>
      <point x="165" y="-46"/>
      <point x="109" y="-46" type="curve" smooth="yes"/>
      <point x="84" y="-46"/>
      <point x="41" y="-20"/>
      <point x="41" y="33" type="curve"/>
      <point x="41" y="78"/>
      <point x="78" y="125"/>
      <point x="126" y="125" type="curve" smooth="yes"/>
      <point x="181" y="125"/>
      <point x="210" y="77"/>
    </contour>
    <contour>
      <point x="184" y="446" type="curve" smooth="yes"/>
      <point x="184" y="348"/>
      <point x="166" y="306"/>
      <point x="146" y="306" type="curve" smooth="yes"/>
      <point x="120" y="306"/>
      <point x="90" y="375"/>
      <point x="90" y="482" type="curve" smooth="yes"/>
      <point x="90" y="596"/>
      <point x="98" y="713"/>
      <point x="98" y="821" type="curve" smooth="yes"/>
      <point x="98" y="1045"/>
      <point x="88" y="1269"/>
      <point x="88" y="1493" type="curve" smooth="yes"/>
      <point x="88" y="1537"/>
      <point x="133" y="1572"/>
      <point x="175" y="1572" type="curve" smooth="yes"/>
      <point x="203" y="1572"/>
      <point x="225" y="1550"/>
      <point x="225" y="1522" type="curve" smooth="yes"/>
      <point x="225" y="1195"/>
      <point x="182" y="870"/>
      <point x="182" y="543" type="curve" smooth="yes"/>
      <point x="182" y="511"/>
      <point x="184" y="478"/>
    </contour>
  </outline>
</glyph>
<glyph name="dollar" format="1">
  <advance width="519"/>
  <unicode hex="0024"/>
  <outline>
    <contour>
      <point x="276" y="1464" type="curve"/>
      <point x="305" y="822" type="line"/>
      <point x="409" y="685"/>
      <point x="513" y="540"/>
      <point x="513" y="342" type="curve" smooth="yes"/>
      <point x="513" y="218"/>
      <point x="465" y="59"/>
      <point x="349" y="-10" type="curve"/>
      <point x="349" y="-155" type="line"/>
      <point x="351" y="-208"/>
      <point x="337" y="-258"/>
      <point x="290" y="-258" type="curve" smooth="yes"/>
      <point x="256" y="-258"/>
      <point x="254" y="-222"/>
      <point x="254" y="-195" type="curve" smooth="yes"/>
      <point x="254" y="-179" type="line"/>
      <point x="254" y="-179"/>
      <point x="253" y="-128"/>
      <point x="250" y="-43" type="curve"/>
      <point x="238" y="-45"/>
      <point x="226" y="-45"/>
      <point x="213" y="-45" type="curve" smooth="yes"/>
      <point x="173" y="-45"/>
      <point x="54" y="-31"/>
      <point x="54" y="24" type="curve" smooth="yes"/>
      <point x="54" y="52"/>
      <point x="68" y="79"/>
      <point x="100" y="79" type="curve" smooth="yes"/>
      <point x="144" y="79"/>
      <point x="181" y="48"/>
      <point x="213" y="48" type="curve" smooth="yes"/>
      <point x="225" y="48"/>
      <point x="236" y="49"/>
      <point x="247" y="52" type="curve"/>
      <point x="241" y="236"/>
      <point x="233" y="506"/>
      <point x="225" y="774" type="curve"/>
      <point x="115" y="924"/>
      <point x="-1" y="1073"/>
      <point x="-1" y="1245" type="curve" smooth="yes"/>
      <point x="-1" y="1350"/>
      <point x="66" y="1473"/>
      <point x="202" y="1535" type="curve"/>
      <point x="201" y="1557"/>
      <point x="201" y="1577"/>
      <point x="200" y="1595" type="curve" smooth="yes"/>
      <point x="193" y="1701"/>
      <point x="272" y="1669"/>
      <point x="272" y="1586" type="curve" smooth="yes"/>
      <point x="272" y="1559" type="line"/>
      <point x="310" y="1568"/>
      <point x="351" y="1574"/>
      <point x="397" y="1574" type="curve" smooth="yes"/>
      <point x="445" y="1574"/>
      <point x="499" y="1545"/>
      <point x="518" y="1500" type="curve"/>
      <point x="483" y="1456" type="line"/>
      <point x="422" y="1456"/>
      <point x="346" y="1484"/>
    </contour>
    <contour>
      <point x="220" y="937" type="curve"/>
      <point x="214" y="1122"/>
      <point x="209" y="1298"/>
      <point x="205" y="1433" type="curve"/>
      <point x="129" y="1385"/>
      <point x="98" y="1308"/>
      <point x="98" y="1258" type="curve" smooth="yes"/>
      <point x="98" y="1137"/>
      <point x="152" y="1035"/>
    </contour>
    <contour>
      <point x="337" y="113" type="line"/>
      <point x="394" y="183"/>
      <point x="419" y="291"/>
      <point x="419" y="345" type="curve" smooth="yes"/>
      <point x="419" y="453"/>
      <point x="374" y="551"/>
      <point x="313" y="647" type="curve"/>
    </contour>
  </outline>
</glyph>
<glyph name="hyphen" format="1">
  <advance width="731"/>
  <unicode hex="002D"/>
  <unicode hex="2015"/>
  <outline>
    <contour>
      <point x="587" y="739" type="curve" smooth="yes"/>
      <point x="587" y="666"/>
      <point x="270" y="656"/>
      <point x="212" y="656" type="curve" smooth="yes"/>
      <point x="179" y="656"/>
      <point x="145" y="680"/>
      <point x="145" y="715" type="curve" smooth="yes"/>
      <point x="145" y="787"/>
      <point x="462" y="798"/>
      <point x="519" y="798" type="curve" smooth="yes"/>
      <point x="552" y="798"/>
      <point x="587" y="775"/>
    </contour>
  </outline>
</glyph>
<glyph name="period" format="1">
  <advance width="445"/>
  <unicode hex="002E"/>
  <outline>
    <contour>
      <point x="148" y="41" type="curve" smooth="yes"/>
      <point x="148" y="82"/>
      <point x="184" y="120"/>
      <point x="225" y="120" type="curve" smooth="yes"/>
      <point x="264" y="120"/>
      <point x="298" y="81"/>
      <point x="298" y="43" type="curve" smooth="yes"/>
      <point x="298" y="-4"/>
      <point x="262" y="-32"/>
      <point x="217" y="-32" type="curve" smooth="yes"/>
      <point x="179" y="-32"/>
      <point x="148" y="4"/>
    </contour>
  </outline>
</glyph>
<glyph name="two" format="1">
  <advance width="537"/>
  <unicode hex="0032"/>
  <outline>
    <contour>
      <point x="167" y="86" type="curve"/>
      <point x="244" y="99"/>
      <point x="331" y="107"/>
      <point x="409" y="107" type="curve"/>
      <point x="434" y="89"/>
      <point x="452" y="70"/>
      <point x="452" y="49" type="curve" smooth="yes"/>
      <point x="452" y="35"/>
      <point x="444" y="20"/>
      <point x="425" y="4" type="curve"/>
      <point x="321" y="4"/>
      <point x="217" y="-15"/>
      <point x="113" y="-15" type="curve" smooth="yes"/>
      <point x="77" y="-15"/>
      <point x="38" y="7"/>
      <point x="38" y="47" type="curve" smooth="yes"/>
      <point x="38" y="55" type="line"/>
      <point x="96" y="125"/>
      <point x="114" y="218"/>
      <point x="151" y="299" type="curve" smooth="yes"/>
      <point x="293" y="614"/>
      <point x="382" y="886"/>
      <point x="382" y="1236" type="curve" smooth="yes"/>
      <point x="382" y="1305"/>
      <point x="378" y="1492"/>
      <point x="284" y="1500" type="curve"/>
      <point x="228" y="1470"/>
      <point x="254" y="1327"/>
      <point x="178" y="1327" type="curve" smooth="yes"/>
      <point x="140" y="1327"/>
      <point x="128" y="1357"/>
      <point x="128" y="1390" type="curve" smooth="yes"/>
      <point x="128" y="1465"/>
      <point x="168" y="1586"/>
      <point x="260" y="1586" type="curve"/>
      <point x="260" y="1587" type="line"/>
      <point x="479" y="1587"/>
      <point x="480" y="1357"/>
      <point x="480" y="1201" type="curve" smooth="yes"/>
      <point x="480" y="772"/>
      <point x="274" y="409"/>
    </contour>
  </outline>
</glyph>
<glyph name="three" format="1">
  <advance width="476"/>
  <unicode hex="0033"/>
  <outline>
    <contour>
      <point x="392" y="1124" type="curve" smooth="yes"/>
      <point x="392" y="1040"/>
      <point x="343" y="993"/>
      <point x="300" y="927" type="curve"/>
      <point x="438" y="844"/>
      <point x="471" y="509"/>
      <point x="471" y="361" type="curve" smooth="yes"/>
      <point x="471" y="213"/>
      <point x="458" y="-20"/>
      <point x="259" y="-20" type="curve" smooth="yes"/>
      <point x="202" y="-20"/>
      <point x="108" y="5"/>
      <point x="108" y="76" type="curve" smooth="yes"/>
      <point x="108" y="101"/>
      <point x="110" y="110"/>
      <point x="142" y="110" type="curve" smooth="yes"/>
      <point x="184" y="110"/>
      <point x="174" y="64"/>
      <point x="243" y="64" type="curve" smooth="yes"/>
      <point x="358" y="64"/>
      <point x="368" y="207"/>
      <point x="368" y="294" type="curve" smooth="yes"/>
      <point x="368" y="482"/>
      <point x="366" y="694"/>
      <point x="243" y="849" type="curve"/>
      <point x="237" y="847"/>
      <point x="230" y="847"/>
      <point x="222" y="847" type="curve" smooth="yes"/>
      <point x="192" y="847"/>
      <point x="159" y="859"/>
      <point x="159" y="889" type="curve" smooth="yes"/>
      <point x="160" y="950"/>
      <point x="290" y="1016"/>
      <point x="290" y="1150" type="curve" smooth="yes"/>
      <point x="290" y="1216"/>
      <point x="276" y="1477"/>
      <point x="183" y="1477" type="curve" smooth="yes"/>
      <point x="107" y="1477"/>
      <point x="131" y="1360"/>
      <point x="48" y="1360" type="curve" smooth="yes"/>
      <point x="16" y="1360"/>
      <point x="-8" y="1387"/>
      <point x="-13" y="1416" type="curve"/>
      <point x="21" y="1501"/>
      <point x="90" y="1573"/>
      <point x="187" y="1573" type="curve" smooth="yes"/>
      <point x="358" y="1573"/>
      <point x="392" y="1292"/>
    </contour>
  </outline>
</glyph>
<glyph name="eight" format="1">
  <advance width="531"/>
  <unicode hex="0038"/>
  <outline>
    <contour>
      <point x="204" y="863" type="curve" smooth="yes"/>
      <point x="204" y="1040"/>
      <point x="63" y="1225"/>
      <point x="63" y="1421" type="curve" smooth="yes"/>
      <point x="63" y="1510"/>
      <point x="102" y="1607"/>
      <point x="205" y="1607" type="curve" smooth="yes"/>
      <point x="248" y="1607" type="line"/>
      <point x="373" y="1530"/>
      <point x="376" y="1466"/>
      <point x="376" y="1313" type="curve" smooth="yes"/>
      <point x="376" y="1160"/>
      <point x="338" y="1010"/>
      <point x="304" y="862" type="curve"/>
      <point x="395" y="651"/>
      <point x="466" y="349"/>
      <point x="466" y="119" type="curve" smooth="yes"/>
      <point x="466" y="103"/>
      <point x="469" y="87"/>
      <point x="465" y="72" type="curve"/>
      <point x="464" y="61" type="line"/>
      <point x="464" y="60" type="line"/>
      <point x="427" y="-24"/>
      <point x="366" y="-82"/>
      <point x="270" y="-82" type="curve" smooth="yes"/>
      <point x="140" y="-82"/>
      <point x="108" y="98"/>
      <point x="108" y="198" type="curve" smooth="yes"/>
      <point x="108" y="421"/>
      <point x="204" y="672"/>
    </contour>
    <contour>
      <point x="203" y="190" type="curve" smooth="yes"/>
      <point x="203" y="188" type="line" smooth="yes"/>
      <point x="203" y="151"/>
      <point x="213" y="115"/>
      <point x="229" y="81" type="curve"/>
      <point x="229" y="71" type="line"/>
      <point x="231" y="50"/>
      <point x="245" y="6"/>
      <point x="272" y="6" type="curve" smooth="yes"/>
      <point x="350" y="6"/>
      <point x="372" y="74"/>
      <point x="372" y="140" type="curve" smooth="yes"/>
      <point x="372" y="348"/>
      <point x="318" y="552"/>
      <point x="261" y="750" type="curve"/>
      <point x="216" y="604"/>
      <point x="203" y="345"/>
    </contour>
    <contour>
      <point x="212" y="1515" type="line"/>
      <point x="191" y="1515" type="line"/>
      <point x="191" y="1516" type="line"/>
      <point x="166" y="1488"/>
      <point x="163" y="1449"/>
      <point x="163" y="1413" type="curve" smooth="yes"/>
      <point x="163" y="1317"/>
      <point x="209" y="1101"/>
      <point x="240" y="1007" type="curve"/>
      <point x="268" y="1106"/>
      <point x="285" y="1209"/>
      <point x="285" y="1312" type="curve" smooth="yes"/>
      <point x="285" y="1342"/>
      <point x="269" y="1516"/>
      <point x="234" y="1516" type="curve"/>
    </contour>
  </outline>
</glyph>
<glyph name="semicolon" format="1">
  <advance width="438"/>
  <unicode hex="003B"/>
  <outline>
    <contour>
      <point x="244" y="359" type="curve" smooth="yes"/>
      <point x="294" y="359"/>
      <point x="315" y="315"/>
      <point x="315" y="251" type="curve" smooth="yes"/>
      <point x="315" y="159"/>
      <point x="223" y="-28"/>
      <point x="133" y="-28" type="curve" smooth="yes"/>
      <point x="117" y="-28"/>
      <point x="103" y="-18"/>
      <point x="103" y="-1" type="curve" smooth="yes"/>
      <point x="103" y="11"/>
      <point x="109" y="28"/>
      <point x="128" y="44" type="curve" smooth="yes"/>
      <point x="192" y="138"/>
      <point x="166" y="359"/>
    </contour>
    <contour>
      <point x="179" y="1025" type="curve" smooth="yes"/>
      <point x="179" y="1065"/>
      <point x="214" y="1104"/>
      <point x="255" y="1104" type="curve" smooth="yes"/>
      <point x="294" y="1104"/>
      <point x="328" y="1065"/>
      <point x="328" y="1027" type="curve" smooth="yes"/>
      <point x="328" y="980"/>
      <point x="292" y="952"/>
      <point x="247" y="952" type="curve" smooth="yes"/>
      <point x="209" y="952"/>
      <point x="179" y="988"/>
    </contour>
  </outline>
</glyph>
<glyph name="A" format="1">
  <advance width="656"/>
  <unicode hex="0041"/>
  <outline>
    <contour>
      <point x="472" y="1525" type="curve"/>
      <point x="472" y="1370"/>
      <point x="552" y="897"/>
      <point x="552" y="710" type="curve" smooth="yes"/>
      <point x="552" y="521"/>
      <point x="595" y="284"/>
      <point x="595" y="70" type="curve" smooth="yes"/>
      <point x="595" y="24"/>
      <point x="574" y="1"/>
      <point x="527" y="1" type="curve" smooth="yes"/>
      <point x="487" y="1"/>
      <point x="464" y="13"/>
      <point x="464" y="54" type="curve" smooth="yes"/>
      <point x="464" y="321" type="line"/>
      <point x="420" y="351"/>
      <point x="281" y="369"/>
      <point x="225" y="373" type="curve"/>
      <point x="174" y="286"/>
      <point x="182" y="117"/>
      <point x="124" y="23" type="curve"/>
      <point x="92" y="23"/>
      <point x="43" y="26"/>
      <point x="34" y="64" type="curve"/>
      <point x="105" y="167"/>
      <point x="253" y="1543"/>
      <point x="406" y="1543" type="curve" smooth="yes"/>
      <point x="428" y="1543"/>
      <point x="454" y="1539"/>
    </contour>
    <contour>
      <point x="394" y="1236" type="curve" smooth="yes"/>
      <point x="394" y="1243"/>
      <point x="394" y="1249"/>
      <point x="395" y="1254" type="curve"/>
      <point x="347" y="1204"/>
      <point x="242" y="549"/>
      <point x="238" y="464" type="curve"/>
      <point x="297" y="448"/>
      <point x="359" y="441"/>
      <point x="420" y="441" type="curve" smooth="yes"/>
      <point x="433" y="441"/>
      <point x="450" y="444"/>
      <point x="462" y="447" type="curve"/>
      <point x="452" y="576"/>
      <point x="394" y="1110"/>
    </contour>
  </outline>
</glyph>
<glyph name="B" format="1">
  <advance width="576"/>
  <unicode hex="0042"/>
  <outline>
    <contour>
      <point x="214" y="1421" type="curve" smooth="yes"/>
      <point x="185" y="1421"/>
      <point x="185" y="1376"/>
      <point x="185" y="1357" type="curve" smooth="yes"/>
      <point x="185" y="1201"/>
      <point x="192" y="1044"/>
      <point x="193" y="888" type="curve"/>
      <point x="286" y="909"/>
      <point x="330" y="1095"/>
      <point x="361" y="1173" type="curve"/>
      <point x="361" y="1246" type="line" smooth="yes"/>
      <point x="361" y="1321"/>
      <point x="296" y="1421"/>
    </contour>
    <contour>
      <point x="421" y="369" type="curve" smooth="yes"/>
      <point x="421" y="717"/>
      <point x="265" y="769"/>
      <point x="265" y="769" type="curve"/>
      <point x="192" y="769" type="line"/>
      <point x="200" y="543"/>
      <point x="202" y="316"/>
      <point x="202" y="90" type="curve"/>
      <point x="343" y="112"/>
      <point x="421" y="232"/>
    </contour>
    <contour>
      <point x="527" y="374" type="curve" smooth="yes"/>
      <point x="527" y="282"/>
      <point x="438" y="-17"/>
      <point x="182" y="-17" type="curve" smooth="yes"/>
      <point x="174" y="-17" type="line" smooth="yes"/>
      <point x="137" y="-17"/>
      <point x="78" y="-15"/>
      <point x="78" y="34" type="curve" smooth="yes"/>
      <point x="78" y="202"/>
      <point x="88" y="370"/>
      <point x="88" y="538" type="curve" smooth="yes"/>
      <point x="88" y="815"/>
      <point x="74" y="1093"/>
      <point x="74" y="1370" type="curve" smooth="yes"/>
      <point x="74" y="1382" type="line" smooth="yes"/>
      <point x="74" y="1440"/>
      <point x="77" y="1537"/>
      <point x="151" y="1537" type="curve" smooth="yes"/>
      <point x="351" y="1537"/>
      <point x="461" y="1392"/>
      <point x="461" y="1201" type="curve" smooth="yes"/>
      <point x="461" y="1075"/>
      <point x="384" y="924"/>
      <point x="295" y="859" type="curve"/>
      <point x="477" y="737"/>
      <point x="527" y="537"/>
    </contour>
  </outline>
</glyph>
<glyph name="E" format="1">
  <advance width="457"/>
  <unicode hex="0045"/>
  <outline>
    <contour>
      <point x="431" y="50" type="line"/>
      <point x="400" y="-11"/>
      <point x="315" y="-12"/>
      <point x="256" y="-12" type="curve" smooth="yes"/>
      <point x="192" y="-12" type="line" smooth="yes"/>
      <point x="144" y="-12"/>
      <point x="90" y="-10"/>
      <point x="90" y="55" type="curve" smooth="yes"/>
      <point x="90" y="1245" type="line" smooth="yes"/>
      <point x="90" y="1316"/>
      <point x="62" y="1383"/>
      <point x="62" y="1454" type="curve" smooth="yes"/>
      <point x="62" y="1461" type="line"/>
      <point x="77" y="1486"/>
      <point x="91" y="1513"/>
      <point x="113" y="1533" type="curve"/>
      <point x="164" y="1533"/>
      <point x="214" y="1551"/>
      <point x="265" y="1551" type="curve" smooth="yes"/>
      <point x="301" y="1551"/>
      <point x="359" y="1527"/>
      <point x="359" y="1484" type="curve" smooth="yes"/>
      <point x="359" y="1432"/>
      <point x="308" y="1423"/>
      <point x="266" y="1423" type="curve" smooth="yes"/>
      <point x="246" y="1423"/>
      <point x="227" y="1425"/>
      <point x="207" y="1425" type="curve" smooth="yes"/>
      <point x="200" y="1425"/>
      <point x="192" y="1425"/>
      <point x="185" y="1424" type="curve"/>
      <point x="185" y="1311"/>
      <point x="201" y="1199"/>
      <point x="201" y="1086" type="curve" smooth="yes"/>
      <point x="201" y="1008"/>
      <point x="192" y="930"/>
      <point x="191" y="852" type="curve"/>
      <point x="223" y="858"/>
      <point x="254" y="870"/>
      <point x="287" y="870" type="curve" smooth="yes"/>
      <point x="317" y="870"/>
      <point x="347" y="844"/>
      <point x="347" y="813" type="curve" smooth="yes"/>
      <point x="347" y="782"/>
      <point x="327" y="750"/>
      <point x="293" y="750" type="curve" smooth="yes"/>
      <point x="280" y="750"/>
      <point x="261" y="752"/>
      <point x="242" y="752" type="curve" smooth="yes"/>
      <point x="221" y="752"/>
      <point x="210" y="749"/>
      <point x="200" y="737" type="curve"/>
      <point x="200" y="105" type="line"/>
      <point x="235" y="107"/>
      <point x="279" y="111"/>
      <point x="314" y="111" type="curve" smooth="yes"/>
      <point x="350" y="111"/>
      <point x="431" y="108"/>
      <point x="431" y="57" type="curve" smooth="yes"/>
    </contour>
  </outline>
</glyph>
<glyph name="G" format="1">
  <advance width="727"/>
  <unicode hex="0047"/>
  <outline>
    <contour>
      <point x="562" y="2" type="curve"/>
      <point x="562" y="4" type="line"/>
      <point x="513" y="-18"/>
      <point x="467" y="-54"/>
      <point x="411" y="-54" type="curve" smooth="yes"/>
      <point x="61" y="-54"/>
      <point x="52" y="464"/>
      <point x="52" y="711" type="curve" smooth="yes"/>
      <point x="52" y="753"/>
      <point x="51" y="805"/>
      <point x="51" y="862" type="curve" smooth="yes"/>
      <point x="51" y="1158"/>
      <point x="77" y="1591"/>
      <point x="402" y="1591" type="curve" smooth="yes"/>
      <point x="440" y="1591"/>
      <point x="487" y="1580"/>
      <point x="487" y="1533" type="curve" smooth="yes"/>
      <point x="487" y="1503"/>
      <point x="461" y="1485"/>
      <point x="433" y="1485" type="curve" smooth="yes"/>
      <point x="413" y="1485"/>
      <point x="394" y="1495"/>
      <point x="374" y="1495" type="curve" smooth="yes"/>
      <point x="166" y="1495"/>
      <point x="161" y="927"/>
      <point x="161" y="744" type="curve" smooth="yes"/>
      <point x="161" y="709"/>
      <point x="160" y="670"/>
      <point x="160" y="617" type="curve" smooth="yes"/>
      <point x="160" y="400"/>
      <point x="178" y="51"/>
      <point x="407" y="51" type="curve" smooth="yes"/>
      <point x="473" y="51"/>
      <point x="521" y="84"/>
      <point x="558" y="137" type="curve"/>
      <point x="557" y="190"/>
      <point x="549" y="329"/>
      <point x="525" y="371" type="curve"/>
      <point x="503" y="369"/>
      <point x="473" y="363"/>
      <point x="445" y="363" type="curve" smooth="yes"/>
      <point x="408" y="363"/>
      <point x="375" y="374"/>
      <point x="375" y="421" type="curve" smooth="yes"/>
      <point x="375" y="477"/>
      <point x="512" y="489"/>
      <point x="552" y="489" type="curve" smooth="yes"/>
      <point x="613" y="489"/>
      <point x="639" y="434"/>
      <point x="639" y="380" type="curve" smooth="yes"/>
      <point x="639" y="257"/>
      <point x="680" y="138"/>
      <point x="680" y="15" type="curve" smooth="yes"/>
      <point x="680" y="-14"/>
      <point x="661" y="-41"/>
      <point x="630" y="-41" type="curve" smooth="yes"/>
      <point x="601" y="-41"/>
      <point x="573" y="-26"/>
    </contour>
  </outline>
</glyph>
<glyph name="I" format="1">
  <advance width="432"/>
  <unicode hex="0049"/>
  <outline>
    <contour>
      <point x="352" y="8" type="line"/>
      <point x="332" y="8"/>
      <point x="274" y="3"/>
      <point x="213" y="3" type="curve" smooth="yes"/>
      <point x="127" y="3"/>
      <point x="36" y="13"/>
      <point x="36" y="64" type="curve" smooth="yes"/>
      <point x="36" y="101"/>
      <point x="66" y="113"/>
      <point x="98" y="113" type="curve" smooth="yes"/>
      <point x="115" y="113"/>
      <point x="129" y="110"/>
      <point x="141" y="110" type="curve" smooth="yes"/>
      <point x="160" y="110"/>
      <point x="171" y="118"/>
      <point x="171" y="158" type="curve" smooth="yes"/>
      <point x="171" y="474"/>
      <point x="133" y="789"/>
      <point x="133" y="1105" type="curve" smooth="yes"/>
      <point x="133" y="1175"/>
      <point x="137" y="1244"/>
      <point x="137" y="1314" type="curve" smooth="yes"/>
      <point x="137" y="1352"/>
      <point x="136" y="1390"/>
      <point x="132" y="1428" type="curve"/>
      <point x="117" y="1423"/>
      <point x="99" y="1419"/>
      <point x="84" y="1419" type="curve" smooth="yes"/>
      <point x="57" y="1419"/>
      <point x="36" y="1430"/>
      <point x="36" y="1468" type="curve" smooth="yes"/>
      <point x="36" y="1540"/>
      <point x="237" y="1553"/>
      <point x="289" y="1553" type="curve" smooth="yes"/>
      <point x="320" y="1553"/>
      <point x="349" y="1529"/>
      <point x="349" y="1497" type="curve" smooth="yes"/>
      <point x="349" y="1470"/>
      <point x="331" y="1442"/>
      <point x="301" y="1442" type="curve" smooth="yes"/>
      <point x="287" y="1442"/>
      <point x="275" y="1443"/>
      <point x="265" y="1443" type="curve" smooth="yes"/>
      <point x="241" y="1443"/>
      <point x="226" y="1437"/>
      <point x="226" y="1401" type="curve" smooth="yes"/>
      <point x="226" y="1001"/>
      <point x="276" y="603"/>
      <point x="276" y="203" type="curve" smooth="yes"/>
      <point x="276" y="124" type="line"/>
      <point x="290" y="126"/>
      <point x="304" y="127"/>
      <point x="318" y="127" type="curve" smooth="yes"/>
      <point x="363" y="127"/>
      <point x="403" y="113"/>
      <point x="403" y="55" type="curve" smooth="yes"/>
      <point x="403" y="43" type="line"/>
    </contour>
  </outline>
</glyph>
<glyph name="O" format="1">
  <advance width="650"/>
  <unicode hex="004F"/>
  <outline>
    <contour>
      <point x="273" y="1585" type="curve" smooth="yes"/>
      <point x="603" y="1585"/>
      <point x="582" y="931"/>
      <point x="582" y="618" type="curve" smooth="yes"/>
      <point x="582" y="531"/>
      <point x="565" y="446"/>
      <point x="564" y="359" type="curve"/>
      <point x="564" y="350" type="line"/>
      <point x="554" y="306"/>
      <point x="551" y="261"/>
      <point x="551" y="215" type="curve" smooth="yes"/>
      <point x="551" y="113"/>
      <point x="475" y="-57"/>
      <point x="355" y="-57" type="curve" smooth="yes"/>
      <point x="83" y="-57"/>
      <point x="57" y="609"/>
      <point x="57" y="799" type="curve" smooth="yes"/>
      <point x="57" y="1041"/>
      <point x="10" y="1585"/>
    </contour>
    <contour>
      <point x="283" y="1477" type="curve" smooth="yes"/>
      <point x="151" y="1477"/>
      <point x="149" y="979"/>
      <point x="149" y="861" type="curve" smooth="yes"/>
      <point x="149" y="852" type="line" smooth="yes"/>
      <point x="149" y="720"/>
      <point x="194" y="55"/>
      <point x="359" y="55" type="curve" smooth="yes"/>
      <point x="477" y="55"/>
      <point x="489" y="561"/>
      <point x="489" y="653" type="curve" smooth="yes"/>
      <point x="489" y="797"/>
      <point x="484" y="1477"/>
    </contour>
  </outline>
</glyph>
<glyph name="P" format="1">
  <advance width="495"/>
  <unicode hex="0050"/>
  <outline>
    <contour>
      <point x="96" y="789" type="curve" smooth="yes"/>
      <point x="96" y="1059"/>
      <point x="84" y="1327"/>
      <point x="43" y="1520" type="curve"/>
      <point x="61" y="1546"/>
      <point x="90" y="1566"/>
      <point x="122" y="1566" type="curve" smooth="yes"/>
      <point x="333" y="1566"/>
      <point x="443" y="1365"/>
      <point x="443" y="1175" type="curve" smooth="yes"/>
      <point x="443" y="983"/>
      <point x="361" y="805"/>
      <point x="187" y="712" type="curve"/>
      <point x="188" y="499"/>
      <point x="203" y="287"/>
      <point x="203" y="74" type="curve" smooth="yes"/>
      <point x="203" y="30"/>
      <point x="186" y="-11"/>
      <point x="135" y="-11" type="curve" smooth="yes"/>
      <point x="99" y="-11"/>
      <point x="86" y="29"/>
      <point x="86" y="58" type="curve" smooth="yes"/>
      <point x="86" y="260"/>
      <point x="96" y="526"/>
    </contour>
    <contour>
      <point x="338" y="1158" type="curve" smooth="yes"/>
      <point x="338" y="1159" type="line" smooth="yes"/>
      <point x="338" y="1334"/>
      <point x="295" y="1362"/>
      <point x="158" y="1459" type="curve"/>
      <point x="159" y="1243"/>
      <point x="181" y="1027"/>
      <point x="182" y="811" type="curve"/>
      <point x="286" y="909"/>
      <point x="338" y="1014"/>
    </contour>
  </outline>
</glyph>
<glyph name="Q" format="1">
  <advance width="676"/>
  <unicode hex="0051"/>
  <outline>
    <contour>
      <point x="273" y="1474" type="curve" smooth="yes"/>
      <point x="166" y="1474"/>
      <point x="157" y="775"/>
      <point x="157" y="653" type="curve" smooth="yes"/>
      <point x="157" y="522"/>
      <point x="171" y="95"/>
      <point x="348" y="80" type="curve"/>
      <point x="348" y="82" type="line"/>
      <point x="358" y="99"/>
      <point x="384" y="108"/>
      <point x="404" y="108" type="curve"/>
      <point x="404" y="107" type="line"/>
      <point x="464" y="162"/>
      <point x="481" y="252"/>
      <point x="481" y="327" type="curve" smooth="yes"/>
      <point x="481" y="793" type="line" smooth="yes"/>
      <point x="481" y="1004"/>
      <point x="496" y="1474"/>
    </contour>
    <contour>
      <point x="593" y="659" type="curve" smooth="yes"/>
      <point x="593" y="567" type="line" smooth="yes"/>
      <point x="593" y="369"/>
      <point x="586" y="236"/>
      <point x="467" y="70" type="curve"/>
      <point x="477" y="27"/>
      <point x="498" y="-169"/>
      <point x="554" y="-169" type="curve" smooth="yes"/>
      <point x="562" y="-169" type="line" smooth="yes"/>
      <point x="598" y="-169"/>
      <point x="650" y="-171"/>
      <point x="650" y="-219" type="curve" smooth="yes"/>
      <point x="650" y="-270"/>
      <point x="600" y="-282"/>
      <point x="559" y="-282" type="curve" smooth="yes"/>
      <point x="528" y="-282"/>
      <point x="500" y="-268"/>
      <point x="474" y="-253" type="curve"/>
      <point x="474" y="-252" type="line"/>
      <point x="376" y="-207"/>
      <point x="379" y="-69"/>
      <point x="360" y="20" type="curve"/>
      <point x="276" y="20" type="line"/>
      <point x="82" y="149"/>
      <point x="56" y="359"/>
      <point x="56" y="574" type="curve" smooth="yes"/>
      <point x="56" y="685"/>
      <point x="66" y="797"/>
      <point x="66" y="908" type="curve" smooth="yes"/>
      <point x="66" y="943"/>
      <point x="64" y="994"/>
      <point x="64" y="1052" type="curve" smooth="yes"/>
      <point x="64" y="1265"/>
      <point x="86" y="1576"/>
      <point x="290" y="1576" type="curve" smooth="yes"/>
      <point x="634" y="1576"/>
      <point x="593" y="979"/>
    </contour>
  </outline>
</glyph>
<glyph name="W" format="1">
  <advance width="901"/>
  <unicode hex="0057"/>
  <outline>
    <contour>
      <point x="697" y="43" type="curve" smooth="yes"/>
      <point x="697" y="5"/>
      <point x="679" y="-28"/>
      <point x="636" y="-28" type="curve" smooth="yes"/>
      <point x="547" y="-28"/>
      <point x="449" y="788"/>
      <point x="430" y="893" type="curve"/>
      <point x="390" y="606"/>
      <point x="352" y="318"/>
      <point x="352" y="28" type="curve" smooth="yes"/>
      <point x="352" y="-2"/>
      <point x="322" y="-29"/>
      <point x="293" y="-29" type="curve" smooth="yes"/>
      <point x="221" y="-29"/>
      <point x="218" y="76"/>
      <point x="218" y="127" type="curve" smooth="yes"/>
      <point x="218" y="250"/>
      <point x="58" y="1413"/>
      <point x="26" y="1491" type="curve"/>
      <point x="40" y="1517"/>
      <point x="66" y="1540"/>
      <point x="97" y="1540" type="curve" smooth="yes"/>
      <point x="207" y="1540"/>
      <point x="258" y="645"/>
      <point x="279" y="503" type="curve"/>
      <point x="301" y="694"/>
      <point x="357" y="1115"/>
      <point x="357" y="1286" type="curve" smooth="yes"/>
      <point x="357" y="1325" type="line" smooth="yes"/>
      <point x="357" y="1353"/>
      <point x="382" y="1388"/>
      <point x="411" y="1388" type="curve" smooth="yes"/>
      <point x="450" y="1388"/>
      <point x="484" y="1374"/>
      <point x="484" y="1328" type="curve" smooth="yes"/>
      <point x="484" y="1297" type="line"/>
      <point x="485" y="1011"/>
      <point x="587" y="740"/>
      <point x="633" y="461" type="curve"/>
      <point x="668" y="809"/>
      <point x="736" y="1155"/>
      <point x="736" y="1506" type="curve" smooth="yes"/>
      <point x="736" y="1561"/>
      <point x="747" y="1592"/>
      <point x="810" y="1592" type="curve" smooth="yes"/>
      <point x="840" y="1592"/>
      <point x="873" y="1569"/>
      <point x="873" y="1536" type="curve" smooth="yes"/>
      <point x="873" y="1519"/>
      <point x="864" y="1501"/>
      <point x="852" y="1489" type="curve"/>
      <point x="852" y="1011"/>
      <point x="697" y="523"/>
    </contour>
  </outline>
</glyph>
<glyph name="Z" format="1">
  <advance width="429"/>
  <unicode hex="005A"/>
  <outline>
    <contour>
      <point x="161" y="85" type="curve"/>
      <point x="184" y="86"/>
      <point x="227" y="93"/>
      <point x="269" y="93" type="curve" smooth="yes"/>
      <point x="324" y="93"/>
      <point x="377" y="81"/>
      <point x="377" y="30" type="curve" smooth="yes"/>
      <point x="377" y="21" type="line"/>
      <point x="345" y="-11" type="line"/>
      <point x="261" y="-11"/>
      <point x="176" y="-19"/>
      <point x="92" y="-19" type="curve" smooth="yes"/>
      <point x="61" y="-19"/>
      <point x="44" y="5"/>
      <point x="34" y="31" type="curve"/>
      <point x="137" y="197"/>
      <point x="267" y="1235"/>
      <point x="281" y="1451" type="curve"/>
      <point x="256" y="1449"/>
      <point x="209" y="1441"/>
      <point x="164" y="1441" type="curve" smooth="yes"/>
      <point x="107" y="1441"/>
      <point x="53" y="1453"/>
      <point x="53" y="1506" type="curve" smooth="yes"/>
      <point x="53" y="1515" type="line"/>
      <point x="81" y="1549" type="line"/>
      <point x="81" y="1550" type="line"/>
      <point x="100" y="1545"/>
      <point x="119" y="1543"/>
      <point x="139" y="1543" type="curve" smooth="yes"/>
      <point x="203" y="1543"/>
      <point x="268" y="1564"/>
      <point x="332" y="1564" type="curve" smooth="yes"/>
      <point x="364" y="1564"/>
      <point x="388" y="1536"/>
      <point x="388" y="1505" type="curve" smooth="yes"/>
      <point x="388" y="1051"/>
      <point x="266" y="494"/>
    </contour>
  </outline>
</glyph>
<glyph name="bracketleft" format="1">
  <advance width="467"/>
  <unicode hex="005B"/>
  <outline>
    <contour>
      <point x="152" y="48" type="curve" smooth="yes"/>
      <point x="152" y="6" type="line"/>
      <point x="173" y="6" type="line" smooth="yes"/>
      <point x="237" y="6"/>
      <point x="355" y="2"/>
      <point x="355" y="-68" type="curve" smooth="yes"/>
      <point x="355" y="-103"/>
      <point x="316" y="-112"/>
      <point x="289" y="-112" type="curve" smooth="yes"/>
      <point x="238" y="-112"/>
      <point x="42" y="-108"/>
      <point x="42" y="-35" type="curve" smooth="yes"/>
      <point x="42" y="134"/>
      <point x="85" y="301"/>
      <point x="85" y="470" type="curve" smooth="yes"/>
      <point x="85" y="808"/>
      <point x="138" y="1142"/>
      <point x="138" y="1480" type="curve" smooth="yes"/>
      <point x="138" y="1495"/>
      <point x="136" y="1508"/>
      <point x="136" y="1519" type="curve" smooth="yes"/>
      <point x="136" y="1548"/>
      <point x="143" y="1563"/>
      <point x="177" y="1577" type="curve"/>
      <point x="255" y="1577" type="line" smooth="yes"/>
      <point x="297" y="1577"/>
      <point x="441" y="1572"/>
      <point x="441" y="1511" type="curve" smooth="yes"/>
      <point x="441" y="1481"/>
      <point x="411" y="1465"/>
      <point x="385" y="1465" type="curve" smooth="yes"/>
      <point x="346" y="1465"/>
      <point x="309" y="1478"/>
      <point x="270" y="1478" type="curve" smooth="yes"/>
      <point x="257" y="1478"/>
      <point x="232" y="1478"/>
      <point x="232" y="1458" type="curve" smooth="yes"/>
      <point x="232" y="987"/>
      <point x="152" y="502"/>
    </contour>
  </outline>
</glyph>
<glyph name="a" format="1">
  <advance width="621"/>
  <unicode hex="0061"/>
  <outline>
    <contour>
      <point x="411" y="375" type="curve"/>
      <point x="406" y="400"/>
      <point x="405" y="425"/>
      <point x="405" y="451" type="curve" smooth="yes"/>
      <point x="405" y="680"/>
      <point x="370" y="907"/>
      <point x="350" y="1134" type="curve"/>
      <point x="307" y="897"/>
      <point x="248" y="551"/>
      <point x="230" y="408" type="curve"/>
      <point x="265" y="385"/>
      <point x="367" y="378"/>
    </contour>
    <contour>
      <point x="424" y="302" type="curve"/>
      <point x="222" y="332" type="line"/>
      <point x="178" y="174"/>
      <point x="197" y="-11"/>
      <point x="107" y="-11" type="curve" smooth="yes"/>
      <point x="77" y="-11"/>
      <point x="42" y="11"/>
      <point x="42" y="44" type="curve" smooth="yes"/>
      <point x="42" y="49"/>
      <point x="46" y="57"/>
      <point x="47" y="62" type="curve" smooth="yes"/>
      <point x="134" y="397"/>
      <point x="207" y="759"/>
      <point x="252" y="1100" type="curve" smooth="yes"/>
      <point x="261" y="1169"/>
      <point x="259" y="1317"/>
      <point x="296" y="1373" type="curve"/>
      <point x="365" y="1373" type="line" smooth="yes"/>
      <point x="397" y="1373"/>
      <point x="435" y="1359"/>
      <point x="435" y="1321" type="curve" smooth="yes"/>
      <point x="435" y="1016"/>
      <point x="518" y="693"/>
      <point x="518" y="416" type="curve" smooth="yes"/>
      <point x="518" y="376"/>
      <point x="540" y="330"/>
      <point x="540" y="290" type="curve" smooth="yes"/>
      <point x="540" y="239"/>
      <point x="579" y="99"/>
      <point x="579" y="41" type="curve" smooth="yes"/>
      <point x="579" y="39" type="line" smooth="yes"/>
      <point x="579" y="15"/>
      <point x="568" y="-10"/>
      <point x="545" y="-19" type="curve"/>
      <point x="496" y="-19"/>
      <point x="454" y="-10"/>
      <point x="454" y="49" type="curve" smooth="yes"/>
      <point x="454" y="136"/>
      <point x="424" y="302"/>
    </contour>
  </outline>
</glyph>
<glyph name="f" format="1">
  <advance width="483"/>
  <unicode hex="0066"/>
  <outline>
    <contour>
      <point x="201" y="753" type="line"/>
      <point x="211" y="753"/>
      <point x="224" y="754"/>
      <point x="239" y="754" type="curve" smooth="yes"/>
      <point x="283" y="754"/>
      <point x="338" y="747"/>
      <point x="338" y="700" type="curve" smooth="yes"/>
      <point x="338" y="662"/>
      <point x="300" y="640"/>
      <point x="266" y="640" type="curve" smooth="yes"/>
      <point x="243" y="640"/>
      <point x="207" y="645"/>
      <point x="185" y="652" type="curve"/>
      <point x="185" y="72" type="line" smooth="yes"/>
      <point x="185" y="6"/>
      <point x="163" y="-18"/>
      <point x="132" y="-18" type="curve" smooth="yes"/>
      <point x="110" y="-18"/>
      <point x="84" y="-6"/>
      <point x="59" y="13" type="curve"/>
      <point x="88" y="333"/>
      <point x="82" y="655"/>
      <point x="99" y="975" type="curve"/>
      <point x="99" y="1025" type="line"/>
      <point x="104" y="1118"/>
      <point x="107" y="1210"/>
      <point x="107" y="1303" type="curve" smooth="yes"/>
      <point x="107" y="1344"/>
      <point x="150" y="1364"/>
      <point x="186" y="1364" type="curve" smooth="yes"/>
      <point x="240" y="1364"/>
      <point x="455" y="1358"/>
      <point x="455" y="1281" type="curve" smooth="yes"/>
      <point x="455" y="1229"/>
      <point x="390" y="1223"/>
      <point x="351" y="1223" type="curve"/>
      <point x="318" y="1239"/>
      <point x="280" y="1243"/>
      <point x="244" y="1243" type="curve" smooth="yes"/>
      <point x="220" y="1243" type="line"/>
      <point x="220" y="1219" type="line"/>
      <point x="219" y="1082"/>
      <point x="201" y="945"/>
      <point x="201" y="808" type="curve" smooth="yes"/>
    </contour>
  </outline>
</glyph>
<glyph name="k" format="1">
  <advance width="637"/>
  <unicode hex="006B"/>
  <outline>
    <contour>
      <point x="572" y="1289" type="curve"/>
      <point x="571" y="1284"/>
      <point x="380" y="976"/>
      <point x="352" y="919" type="curve"/>
      <point x="352" y="878"/>
      <point x="348" y="838"/>
      <point x="348" y="797" type="curve" smooth="yes"/>
      <point x="348" y="678"/>
      <point x="474" y="252"/>
      <point x="536" y="149" type="curve" smooth="yes"/>
      <point x="561" y="108"/>
      <point x="602" y="71"/>
      <point x="602" y="19" type="curve" smooth="yes"/>
      <point x="602" y="-13"/>
      <point x="574" y="-35"/>
      <point x="544" y="-35" type="curve" smooth="yes"/>
      <point x="405" y="-35"/>
      <point x="271" y="626"/>
      <point x="250" y="752" type="curve"/>
      <point x="194" y="641"/>
      <point x="176" y="519"/>
      <point x="176" y="396" type="curve" smooth="yes"/>
      <point x="176" y="17" type="line" smooth="yes"/>
      <point x="176" y="-14"/>
      <point x="162" y="-31"/>
      <point x="134" y="-31" type="curve" smooth="yes"/>
      <point x="94" y="-31"/>
      <point x="66" y="-7"/>
      <point x="66" y="34" type="curve" smooth="yes"/>
      <point x="66" y="656" type="line" smooth="yes"/>
      <point x="66" y="877"/>
      <point x="105" y="1097"/>
      <point x="105" y="1318" type="curve"/>
      <point x="116" y="1342"/>
      <point x="140" y="1357"/>
      <point x="166" y="1357" type="curve" smooth="yes"/>
      <point x="200" y="1357"/>
      <point x="229" y="1328"/>
      <point x="229" y="1294" type="curve" smooth="yes"/>
      <point x="229" y="1288" type="line"/>
      <point x="203" y="1243"/>
      <point x="202" y="1038"/>
      <point x="202" y="915" type="curve" smooth="yes"/>
      <point x="202" y="842" type="line"/>
      <point x="241" y="912"/>
      <point x="440" y="1344"/>
      <point x="493" y="1344" type="curve" smooth="yes"/>
      <point x="526" y="1344"/>
      <point x="572" y="1329"/>
    </contour>
  </outline>
</glyph>
<glyph name="l" format="1">
  <advance width="467"/>
  <unicode hex="006C"/>
  <outline>
    <contour>
      <point x="184" y="545" type="line" smooth="yes"/>
      <point x="184" y="435"/>
      <point x="176" y="333"/>
      <point x="176" y="219" type="curve" smooth="yes"/>
      <point x="176" y="154"/>
      <point x="185" y="78"/>
      <point x="245" y="78" type="curve" smooth="yes"/>
      <point x="264" y="78"/>
      <point x="297" y="81"/>
      <point x="330" y="81" type="curve" smooth="yes"/>
      <point x="384" y="81"/>
      <point x="440" y="72"/>
      <point x="440" y="21" type="curve" smooth="yes"/>
      <point x="440" y="-11"/>
      <point x="405" y="-29"/>
      <point x="378" y="-33" type="curve"/>
      <point x="319" y="-14"/>
      <point x="257" y="-9"/>
      <point x="195" y="-9" type="curve"/>
      <point x="174" y="-21"/>
      <point x="149" y="-28"/>
      <point x="125" y="-28" type="curve" smooth="yes"/>
      <point x="91" y="-28"/>
      <point x="67" y="7"/>
      <point x="67" y="39" type="curve" smooth="yes"/>
      <point x="67" y="344"/>
      <point x="93" y="649"/>
      <point x="93" y="954" type="curve" smooth="yes"/>
      <point x="93" y="969" type="line"/>
      <point x="87" y="1033"/>
      <point x="81" y="1097"/>
      <point x="81" y="1161" type="curve" smooth="yes"/>
      <point x="81" y="1207"/>
      <point x="82" y="1355"/>
      <point x="152" y="1355" type="curve" smooth="yes"/>
      <point x="180" y="1355"/>
      <point x="204" y="1332"/>
      <point x="204" y="1304" type="curve" smooth="yes"/>
      <point x="204" y="1252"/>
      <point x="190" y="1200"/>
      <point x="190" y="1148" type="curve" smooth="yes"/>
      <point x="190" y="984"/>
      <point x="196" y="820"/>
      <point x="196" y="656" type="curve"/>
      <point x="185" y="630"/>
      <point x="184" y="599"/>
      <point x="184" y="570" type="curve" smooth="yes"/>
    </contour>
  </outline>
</glyph>
<glyph name="o" format="1">
  <advance width="651"/>
  <unicode hex="006F"/>
  <outline>
    <contour>
      <point x="584" y="798" type="curve" smooth="yes"/>
      <point x="584" y="783" type="line" smooth="yes"/>
      <point x="584" y="706"/>
      <point x="588" y="628"/>
      <point x="588" y="551" type="curve" smooth="yes"/>
      <point x="588" y="368"/>
      <point x="573" y="-38"/>
      <point x="315" y="-38" type="curve" smooth="yes"/>
      <point x="82" y="-38"/>
      <point x="51" y="410"/>
      <point x="51" y="626" type="curve" smooth="yes"/>
      <point x="51" y="658"/>
      <point x="53" y="677"/>
      <point x="53" y="704" type="curve" smooth="yes"/>
      <point x="53" y="711"/>
      <point x="52" y="714"/>
      <point x="50" y="714" type="curve"/>
      <point x="50" y="751" type="line" smooth="yes"/>
      <point x="50" y="860"/>
      <point x="49" y="1378"/>
      <point x="204" y="1378" type="curve" smooth="yes"/>
      <point x="490" y="1378"/>
      <point x="584" y="1114"/>
    </contour>
    <contour>
      <point x="282" y="1269" type="curve" smooth="yes"/>
      <point x="184" y="1269"/>
      <point x="170" y="1141"/>
      <point x="170" y="1027" type="curve" smooth="yes"/>
      <point x="170" y="981"/>
      <point x="172" y="937"/>
      <point x="172" y="906" type="curve" smooth="yes"/>
      <point x="172" y="843"/>
      <point x="162" y="780"/>
      <point x="162" y="717" type="curve" smooth="yes"/>
      <point x="162" y="613"/>
      <point x="173" y="47"/>
      <point x="307" y="47" type="curve" smooth="yes"/>
      <point x="464" y="47"/>
      <point x="478" y="454"/>
      <point x="478" y="564" type="curve" smooth="yes"/>
      <point x="478" y="723"/>
      <point x="452" y="882"/>
      <point x="451" y="1041" type="curve"/>
      <point x="451" y="1077" type="line"/>
      <point x="448" y="1171"/>
      <point x="384" y="1269"/>
    </contour>
  </outline>
</glyph>
<glyph name="p" format="1">
  <advance width="483"/>
  <unicode hex="0070"/>
  <outline>
    <contour>
      <point x="71" y="1270" type="curve"/>
      <point x="76" y="1297"/>
      <point x="93" y="1342"/>
      <point x="126" y="1342" type="curve" smooth="yes"/>
      <point x="216" y="1342" type="line" smooth="yes"/>
      <point x="381" y="1342"/>
      <point x="424" y="1180"/>
      <point x="424" y="1044" type="curve" smooth="yes"/>
      <point x="424" y="831"/>
      <point x="421" y="699"/>
      <point x="189" y="628" type="curve"/>
      <point x="189" y="409" type="line" smooth="yes"/>
      <point x="189" y="279"/>
      <point x="205" y="151"/>
      <point x="205" y="21" type="curve" smooth="yes"/>
      <point x="205" y="-14"/>
      <point x="170" y="-39"/>
      <point x="136" y="-39" type="curve"/>
      <point x="93" y="-14" type="line"/>
      <point x="71" y="85"/>
      <point x="68" y="186"/>
      <point x="68" y="287" type="curve" smooth="yes"/>
      <point x="68" y="409"/>
      <point x="76" y="530"/>
      <point x="76" y="652" type="curve"/>
      <point x="69" y="668"/>
      <point x="64" y="685"/>
      <point x="64" y="702" type="curve" smooth="yes"/>
      <point x="64" y="709" type="line"/>
      <point x="83" y="747"/>
      <point x="84" y="841"/>
      <point x="84" y="885" type="curve" smooth="yes"/>
      <point x="84" y="944"/>
      <point x="87" y="1012"/>
      <point x="87" y="1080" type="curve" smooth="yes"/>
      <point x="87" y="1147"/>
      <point x="85" y="1213"/>
    </contour>
    <contour>
      <point x="208" y="1228" type="curve"/>
      <point x="208" y="1231"/>
      <point x="188" y="1231"/>
      <point x="186" y="1231" type="curve"/>
      <point x="186" y="1115" type="line" smooth="yes"/>
      <point x="186" y="982"/>
      <point x="189" y="849"/>
      <point x="190" y="716" type="curve"/>
      <point x="190" y="713" type="line"/>
      <point x="309" y="729"/>
      <point x="312" y="969"/>
      <point x="312" y="1059" type="curve" smooth="yes"/>
      <point x="312" y="1136"/>
      <point x="308" y="1228"/>
    </contour>
  </outline>
</glyph>
<glyph name="q" format="1">
  <advance width="644"/>
  <unicode hex="0071"/>
  <outline>
    <contour>
      <point x="502" y="-434" type="curve"/>
      <point x="502" y="-432" type="line"/>
      <point x="449" y="-432"/>
      <point x="382" y="-427"/>
      <point x="344" y="-385" type="curve"/>
      <point x="344" y="-276"/>
      <point x="320" y="-169"/>
      <point x="299" y="-62" type="curve"/>
      <point x="6" y="1"/>
      <point x="52" y="426"/>
      <point x="52" y="754" type="curve" smooth="yes"/>
      <point x="52" y="903"/>
      <point x="67" y="1369"/>
      <point x="283" y="1369" type="curve"/>
      <point x="313" y="1356"/>
      <point x="346" y="1353"/>
      <point x="376" y="1341" type="curve" smooth="yes"/>
      <point x="570" y="1262"/>
      <point x="582" y="990"/>
      <point x="582" y="812" type="curve" smooth="yes"/>
      <point x="582" y="635"/>
      <point x="579" y="30"/>
      <point x="399" y="-49" type="curve"/>
      <point x="399" y="-143"/>
      <point x="435" y="-235"/>
      <point x="455" y="-326" type="curve"/>
      <point x="496" y="-326"/>
      <point x="550" y="-333"/>
      <point x="550" y="-384" type="curve" smooth="yes"/>
      <point x="550" y="-412"/>
      <point x="530" y="-434"/>
    </contour>
    <contour>
      <point x="271" y="1288" type="curve" smooth="yes"/>
      <point x="172" y="1288"/>
      <point x="151" y="785"/>
      <point x="151" y="699" type="curve" smooth="yes"/>
      <point x="151" y="590"/>
      <point x="151" y="7"/>
      <point x="293" y="6" type="curve"/>
      <point x="312" y="14"/>
      <point x="333" y="18"/>
      <point x="353" y="18" type="curve" smooth="yes"/>
      <point x="408" y="18"/>
      <point x="473" y="439"/>
      <point x="473" y="511" type="curve" smooth="yes"/>
      <point x="473" y="869" type="line" smooth="yes"/>
      <point x="473" y="1004"/>
      <point x="459" y="1288"/>
    </contour>
  </outline>
</glyph>
<glyph name="x" format="1">
  <advance width="471"/>
  <unicode hex="0078"/>
  <outline>
    <contour>
      <point x="234" y="894" type="curve"/>
      <point x="249" y="981"/>
      <point x="268" y="1069"/>
      <point x="268" y="1158" type="curve" smooth="yes"/>
      <point x="268" y="1181"/>
      <point x="267" y="1204"/>
      <point x="267" y="1225" type="curve" smooth="yes"/>
      <point x="267" y="1286"/>
      <point x="277" y="1335"/>
      <point x="359" y="1357" type="curve"/>
      <point x="397" y="1309" type="line"/>
      <point x="362" y="1258"/>
      <point x="362" y="1193"/>
      <point x="362" y="1133" type="curve" smooth="yes"/>
      <point x="362" y="1109" type="line"/>
      <point x="330" y="1021"/>
      <point x="284" y="741"/>
      <point x="284" y="646" type="curve" smooth="yes"/>
      <point x="284" y="475"/>
      <point x="432" y="175"/>
      <point x="432" y="54" type="curve" smooth="yes"/>
      <point x="432" y="24"/>
      <point x="405" y="3"/>
      <point x="377" y="3" type="curve" smooth="yes"/>
      <point x="293" y="3"/>
      <point x="248" y="353"/>
      <point x="231" y="433" type="curve"/>
      <point x="211" y="320"/>
      <point x="213" y="203"/>
      <point x="179" y="93" type="curve"/>
      <point x="180" y="86"/>
      <point x="180" y="78"/>
      <point x="180" y="69" type="curve" smooth="yes"/>
      <point x="180" y="33"/>
      <point x="169" y="-7"/>
      <point x="127" y="-7" type="curve" smooth="yes"/>
      <point x="100" y="-7"/>
      <point x="65" y="8"/>
      <point x="65" y="40" type="curve" smooth="yes"/>
      <point x="65" y="253"/>
      <point x="181" y="447"/>
      <point x="181" y="660" type="curve" smooth="yes"/>
      <point x="181" y="733"/>
      <point x="87" y="1172"/>
      <point x="54" y="1219" type="curve"/>
      <point x="54" y="1241" type="line"/>
      <point x="41" y="1254"/>
      <point x="35" y="1274"/>
      <point x="35" y="1292" type="curve" smooth="yes"/>
      <point x="35" y="1322"/>
      <point x="72" y="1334"/>
      <point x="96" y="1334" type="curve" smooth="yes"/>
      <point x="170" y="1334"/>
      <point x="216" y="979"/>
    </contour>
  </outline>
</glyph>
<glyph name="z" format="1">
  <advance width="493"/>
  <unicode hex="007A"/>
  <outline>
    <contour>
      <point x="344" y="1256" type="curve"/>
      <point x="288" y="1254"/>
      <point x="233" y="1244"/>
      <point x="177" y="1244" type="curve" smooth="yes"/>
      <point x="147" y="1244"/>
      <point x="124" y="1272"/>
      <point x="124" y="1301" type="curve" smooth="yes"/>
      <point x="124" y="1356"/>
      <point x="284" y="1359"/>
      <point x="349" y="1359" type="curve"/>
      <point x="388" y="1359"/>
      <point x="450" y="1355"/>
      <point x="450" y="1302" type="curve" smooth="yes"/>
      <point x="450" y="1172"/>
      <point x="373" y="1059"/>
      <point x="353" y="933" type="curve" smooth="yes"/>
      <point x="308" y="653"/>
      <point x="189" y="264"/>
      <point x="157" y="105" type="curve"/>
      <point x="192" y="105" type="line" smooth="yes"/>
      <point x="221" y="105"/>
      <point x="249" y="111"/>
      <point x="278" y="111" type="curve"/>
      <point x="278" y="112" type="line"/>
      <point x="313" y="112"/>
      <point x="361" y="109"/>
      <point x="361" y="62" type="curve" smooth="yes"/>
      <point x="361" y="25"/>
      <point x="320" y="12"/>
      <point x="290" y="12" type="curve" smooth="yes"/>
      <point x="250" y="12"/>
      <point x="209" y="18"/>
      <point x="169" y="18" type="curve" smooth="yes"/>
      <point x="142" y="18"/>
      <point x="123" y="-4"/>
      <point x="96" y="-4" type="curve" smooth="yes"/>
      <point x="69" y="-4"/>
      <point x="41" y="15"/>
      <point x="41" y="42" type="curve" smooth="yes"/>
      <point x="41" y="339"/>
      <point x="248" y="878"/>
    </contour>
  </outline>
</glyph>
<glyph name="yen" format="1">
  <advance width="876"/>
  <unicode hex="00A5"/>
  <outline>
    <contour>
      <point x="18" y="1764" type="line"/>
      <point x="21" y="1759" type="line"/>
      <point x="37" y="1766"/>
      <point x="54" y="1774"/>
      <point x="71" y="1774" type="curve" smooth="yes"/>
      <point x="170" y="1774"/>
      <point x="415" y="1293"/>
      <point x="472" y="1207" type="curve"/>
      <point x="509" y="1302"/>
      <point x="628" y="1832"/>
      <point x="725" y="1832" type="curve" smooth="yes"/>
      <point x="755" y="1832"/>
      <point x="783" y="1809"/>
      <point x="783" y="1778" type="curve"/>
      <point x="781" y="1768" type="line"/>
      <point x="720" y="1589"/>
      <point x="656" y="1422"/>
      <point x="609" y="1238" type="curve" smooth="yes"/>
      <point x="593" y="1176"/>
      <point x="560" y="1121"/>
      <point x="545" y="1059" type="curve"/>
      <point x="570" y="1056" type="line"/>
      <point x="598" y="1056"/>
      <point x="664" y="1066"/>
      <point x="725" y="1066" type="curve" smooth="yes"/>
      <point x="792" y="1066"/>
      <point x="852" y="1054"/>
      <point x="852" y="1005" type="curve" smooth="yes"/>
      <point x="852" y="955"/>
      <point x="780" y="948"/>
      <point x="739" y="948" type="curve" smooth="yes"/>
      <point x="730" y="948" type="line" smooth="yes"/>
      <point x="539" y="950" type="line"/>
      <point x="539" y="887" type="line"/>
      <point x="564" y="887"/>
      <point x="625" y="895"/>
      <point x="687" y="895" type="curve" smooth="yes"/>
      <point x="767" y="895"/>
      <point x="847" y="881"/>
      <point x="847" y="820" type="curve" smooth="yes"/>
      <point x="847" y="789"/>
      <point x="816" y="766"/>
      <point x="787" y="766" type="curve" smooth="yes"/>
      <point x="679" y="766" type="line"/>
      <point x="700" y="776" type="line"/>
      <point x="534" y="776" type="line"/>
      <point x="533" y="564"/>
      <point x="503" y="354"/>
      <point x="503" y="142" type="curve" smooth="yes"/>
      <point x="503" y="128"/>
      <point x="504" y="111"/>
      <point x="504" y="94" type="curve" smooth="yes"/>
      <point x="504" y="45"/>
      <point x="496" y="-8"/>
      <point x="435" y="-8" type="curve" smooth="yes"/>
      <point x="407" y="-8"/>
      <point x="370" y="6"/>
      <point x="370" y="40" type="curve" smooth="yes"/>
      <point x="370" y="45" type="line"/>
      <point x="397" y="112"/>
      <point x="413" y="663"/>
      <point x="413" y="773" type="curve"/>
      <point x="406" y="773" type="line" smooth="yes"/>
      <point x="343" y="773"/>
      <point x="279" y="762"/>
      <point x="216" y="762" type="curve" smooth="yes"/>
      <point x="202" y="762" type="line" smooth="yes"/>
      <point x="171" y="763" type="line"/>
      <point x="147" y="776"/>
      <point x="128" y="798"/>
      <point x="117" y="823" type="curve"/>
      <point x="133" y="875" type="line"/>
      <point x="229" y="875"/>
      <point x="326" y="878"/>
      <point x="422" y="883" type="curve"/>
      <point x="424" y="907"/>
      <point x="424" y="930"/>
      <point x="424" y="954" type="curve"/>
      <point x="423" y="958" type="line"/>
      <point x="396" y="957"/>
      <point x="331" y="948"/>
      <point x="270" y="948" type="curve" smooth="yes"/>
      <point x="201" y="948"/>
      <point x="138" y="960"/>
      <point x="138" y="1010" type="curve" smooth="yes"/>
      <point x="138" y="1017" type="line"/>
      <point x="163" y="1056" type="line"/>
      <point x="216" y="1056"/>
      <point x="268" y="1052"/>
      <point x="321" y="1052" type="curve" smooth="yes"/>
      <point x="355" y="1052"/>
      <point x="389" y="1054"/>
      <point x="423" y="1059" type="curve"/>
      <point x="423" y="1071" type="line"/>
      <point x="243" y="1251"/>
      <point x="211" y="1535"/>
      <point x="18" y="1705" type="curve"/>
    </contour>
  </outline>
</glyph>
<glyph name="guillemotleft" format="1">
  <advance width="681"/>
  <unicode hex="00AB"/>
  <outline>
    <contour>
      <point x="704" y="49" type="line"/>
      <point x="702" y="19"/>
      <point x="687" y="-22"/>
      <point x="650" y="-22" type="curve" smooth="yes"/>
      <point x="638" y="-22"/>
      <point x="622" y="-22"/>
      <point x="610" y="-18" type="curve" smooth="yes"/>
      <point x="578" y="-8"/>
      <point x="290" y="612"/>
      <point x="250" y="698" type="curve"/>
      <point x="253" y="798"/>
      <point x="436" y="1125"/>
      <point x="474" y="1255" type="curve" smooth="yes"/>
      <point x="485" y="1293"/>
      <point x="512" y="1447"/>
      <point x="573" y="1447" type="curve" smooth="yes"/>
      <point x="575" y="1447"/>
      <point x="577" y="1446"/>
      <point x="580" y="1446" type="curve"/>
      <point x="625" y="1411" type="line"/>
      <point x="598" y="1193"/>
      <point x="367" y="869"/>
      <point x="367" y="702" type="curve" smooth="yes"/>
      <point x="367" y="679"/>
      <point x="641" y="135"/>
      <point x="678" y="69" type="curve"/>
    </contour>
    <contour>
      <point x="390" y="1440" type="curve"/>
      <point x="283" y="1193"/>
      <point x="210" y="929"/>
      <point x="96" y="687" type="curve"/>
      <point x="129" y="526"/>
      <point x="453" y="65"/>
      <point x="453" y="-13" type="curve" smooth="yes"/>
      <point x="453" y="-45"/>
      <point x="415" y="-59"/>
      <point x="389" y="-59" type="curve" smooth="yes"/>
      <point x="344" y="-59"/>
      <point x="-15" y="607"/>
      <point x="-15" y="697" type="curve" smooth="yes"/>
      <point x="-15" y="749"/>
      <point x="208" y="1261"/>
      <point x="246" y="1361" type="curve"/>
      <point x="250" y="1398"/>
      <point x="282" y="1456"/>
      <point x="307" y="1483" type="curve"/>
      <point x="307" y="1485" type="line"/>
      <point x="313" y="1486"/>
      <point x="320" y="1489"/>
      <point x="326" y="1489" type="curve" smooth="yes"/>
      <point x="355" y="1489"/>
      <point x="388" y="1473"/>
    </contour>
  </outline>
</glyph>
<glyph name="registered" format="1">
  <advance width="1216"/>
  <unicode hex="00AE"/>
  <outline>
    <contour>
      <point x="636" y="-190" type="curve" smooth="yes"/>
      <point x="135" y="-190"/>
      <point x="102" y="358"/>
      <point x="102" y="757" type="curve" smooth="yes"/>
      <point x="102" y="917" type="line" smooth="yes"/>
      <point x="102" y="1292"/>
      <point x="136" y="1938"/>
      <point x="632" y="1938" type="curve" smooth="yes"/>
      <point x="757" y="1938"/>
      <point x="871" y="1851"/>
      <point x="942" y="1755" type="curve"/>
      <point x="1066" y="1679"/>
      <point x="1114" y="968"/>
      <point x="1114" y="807" type="curve" smooth="yes"/>
      <point x="1114" y="470"/>
      <point x="1113" y="-190"/>
    </contour>
    <contour>
      <point x="874" y="1655" type="curve" smooth="yes"/>
      <point x="844" y="1716"/>
      <point x="716" y="1832"/>
      <point x="647" y="1832" type="curve" smooth="yes"/>
      <point x="245" y="1832"/>
      <point x="222" y="1241"/>
      <point x="222" y="954" type="curve" smooth="yes"/>
      <point x="222" y="747"/>
      <point x="224" y="179"/>
      <point x="362" y="27" type="curve" smooth="yes"/>
      <point x="398" y="-13"/>
      <point x="444" y="-31"/>
      <point x="485" y="-64" type="curve"/>
      <point x="545" y="-76" type="line"/>
      <point x="564" y="-84" type="line"/>
      <point x="981" y="-79"/>
      <point x="1000" y="396"/>
      <point x="1000" y="706" type="curve" smooth="yes"/>
      <point x="1000" y="759"/>
      <point x="1001" y="812"/>
      <point x="1001" y="866" type="curve" smooth="yes"/>
      <point x="1001" y="1136"/>
      <point x="991" y="1416"/>
    </contour>
    <contour>
      <point x="895" y="199" type="curve" smooth="yes"/>
      <point x="895" y="175"/>
      <point x="861" y="143"/>
      <point x="838" y="143" type="curve" smooth="yes"/>
      <point x="716" y="143"/>
      <point x="614" y="797"/>
      <point x="568" y="914" type="curve"/>
      <point x="513" y="891" type="line"/>
      <point x="511" y="859"/>
      <point x="508" y="828"/>
      <point x="508" y="796" type="curve" smooth="yes"/>
      <point x="508" y="600"/>
      <point x="553" y="406"/>
      <point x="553" y="210" type="curve" smooth="yes"/>
      <point x="553" y="174"/>
      <point x="537" y="143"/>
      <point x="497" y="143" type="curve" smooth="yes"/>
      <point x="461" y="143"/>
      <point x="424" y="169"/>
      <point x="424" y="208" type="curve" smooth="yes"/>
      <point x="424" y="224"/>
      <point x="425" y="240"/>
      <point x="425" y="256" type="curve" smooth="yes"/>
      <point x="425" y="327"/>
      <point x="423" y="399"/>
      <point x="416" y="470" type="curve" smooth="yes"/>
      <point x="409" y="539"/>
      <point x="390" y="606"/>
      <point x="390" y="676" type="curve" smooth="yes"/>
      <point x="390" y="1075" type="line" smooth="yes"/>
      <point x="390" y="1202"/>
      <point x="365" y="1327"/>
      <point x="365" y="1454" type="curve" smooth="yes"/>
      <point x="365" y="1603"/>
      <point x="447" y="1635"/>
      <point x="581" y="1635" type="curve" smooth="yes"/>
      <point x="788" y="1635"/>
      <point x="817" y="1433"/>
      <point x="817" y="1270" type="curve" smooth="yes"/>
      <point x="817" y="1023"/>
      <point x="687" y="1007"/>
      <point x="676" y="969" type="curve"/>
      <point x="679" y="888"/>
      <point x="824" y="425"/>
      <point x="858" y="314" type="curve"/>
      <point x="865" y="314" type="line"/>
      <point x="865" y="271"/>
      <point x="895" y="239"/>
    </contour>
    <contour>
      <point x="587" y="1525" type="curve" smooth="yes"/>
      <point x="497" y="1525"/>
      <point x="479" y="1475"/>
      <point x="479" y="1407" type="curve" smooth="yes"/>
      <point x="479" y="1364"/>
      <point x="487" y="1312"/>
      <point x="487" y="1263" type="curve" smooth="yes"/>
      <point x="487" y="1175"/>
      <point x="488" y="1086"/>
      <point x="510" y="1000" type="curve"/>
      <point x="631" y="1049"/>
      <point x="695" y="1142"/>
      <point x="695" y="1272" type="curve" smooth="yes"/>
      <point x="695" y="1280" type="line" smooth="yes"/>
      <point x="695" y="1359"/>
      <point x="693" y="1525"/>
    </contour>
  </outline>
</glyph>
<glyph name="plusminus" format="1">
  <advance width="773"/>
  <unicode hex="00B1"/>
  <outline>
    <contour>
      <point x="100" y="200" type="curve" smooth="yes"/>
      <point x="100" y="228"/>
      <point x="118" y="246"/>
      <point x="146" y="246" type="curve" smooth="yes"/>
      <point x="448" y="246" type="line" smooth="yes"/>
      <point x="490" y="246"/>
      <point x="532" y="253"/>
      <point x="574" y="253" type="curve" smooth="yes"/>
      <point x="616" y="253"/>
      <point x="672" y="246"/>
      <point x="672" y="192" type="curve" smooth="yes"/>
      <point x="672" y="158"/>
      <point x="644" y="145"/>
      <point x="614" y="145" type="curve" smooth="yes"/>
      <point x="470" y="145"/>
      <point x="325" y="135"/>
      <point x="182" y="135" type="curve" smooth="yes"/>
      <point x="137" y="135"/>
      <point x="100" y="149"/>
    </contour>
    <contour>
      <point x="314" y="385" type="curve" smooth="yes"/>
      <point x="314" y="451"/>
      <point x="320" y="518"/>
      <point x="320" y="584" type="curve"/>
      <point x="302" y="599" type="line"/>
      <point x="274" y="599"/>
      <point x="228" y="590"/>
      <point x="188" y="590" type="curve" smooth="yes"/>
      <point x="141" y="590"/>
      <point x="100" y="602"/>
      <point x="100" y="655" type="curve" smooth="yes"/>
      <point x="100" y="682"/>
      <point x="117" y="708"/>
      <point x="146" y="708" type="curve" smooth="yes"/>
      <point x="186" y="708"/>
      <point x="228" y="701"/>
      <point x="268" y="701" type="curve" smooth="yes"/>
      <point x="284" y="701"/>
      <point x="298" y="702"/>
      <point x="314" y="705" type="curve"/>
      <point x="312" y="755"/>
      <point x="302" y="805"/>
      <point x="302" y="855" type="curve" smooth="yes"/>
      <point x="302" y="900"/>
      <point x="309" y="968"/>
      <point x="368" y="968" type="curve" smooth="yes"/>
      <point x="400" y="968"/>
      <point x="428" y="942"/>
      <point x="428" y="909" type="curve" smooth="yes"/>
      <point x="428" y="904" type="line"/>
      <point x="420" y="884" type="line"/>
      <point x="421" y="853"/>
      <point x="421" y="701"/>
      <point x="448" y="701" type="curve" smooth="yes"/>
      <point x="473" y="701"/>
      <point x="520" y="709"/>
      <point x="566" y="709" type="curve" smooth="yes"/>
      <point x="621" y="709"/>
      <point x="672" y="697"/>
      <point x="672" y="647" type="curve" smooth="yes"/>
      <point x="672" y="615"/>
      <point x="646" y="591"/>
      <point x="614" y="591" type="curve" smooth="yes"/>
      <point x="573" y="591"/>
      <point x="535" y="602"/>
      <point x="494" y="602" type="curve" smooth="yes"/>
      <point x="460" y="602"/>
      <point x="428" y="593"/>
      <point x="428" y="553" type="curve" smooth="yes"/>
      <point x="428" y="498"/>
      <point x="448" y="444"/>
      <point x="448" y="389" type="curve" smooth="yes"/>
      <point x="448" y="353"/>
      <point x="412" y="333"/>
      <point x="380" y="333" type="curve" smooth="yes"/>
      <point x="351" y="333"/>
      <point x="314" y="352"/>
    </contour>
  </outline>
</glyph>
<glyph name="cedilla" format="1">
  <advance width="404"/>
  <unicode hex="00B8"/>
  <outline>
    <contour>
      <point x="185" y="-403" type="curve" smooth="yes"/>
      <point x="237" y="-403"/>
      <point x="262" y="-356"/>
      <point x="262" y="-304" type="curve" smooth="yes"/>
      <point x="262" y="-264"/>
      <point x="228" y="-219"/>
      <point x="164" y="-219" type="curve" smooth="yes"/>
      <point x="128" y="-219"/>
      <point x="85" y="-218"/>
      <point x="82" y="-207" type="curve"/>
      <point x="82" y="-151"/>
      <point x="91" y="-99"/>
      <point x="91" y="-41" type="curve" smooth="yes"/>
      <point x="91" y="-20"/>
      <point x="91" y="-2"/>
      <point x="97" y="18" type="curve"/>
      <point x="153" y="18" type="line"/>
      <point x="146" y="-18"/>
      <point x="142" y="-54"/>
      <point x="140" y="-91" type="curve"/>
      <point x="297" y="-112"/>
      <point x="349" y="-216"/>
      <point x="349" y="-318" type="curve" smooth="yes"/>
      <point x="349" y="-397"/>
      <point x="265" y="-484"/>
      <point x="180" y="-484" type="curve" smooth="yes"/>
      <point x="129" y="-484"/>
      <point x="58" y="-467"/>
      <point x="58" y="-425" type="curve" smooth="yes"/>
      <point x="58" y="-400"/>
      <point x="80" y="-381"/>
      <point x="104" y="-381" type="curve" smooth="yes"/>
      <point x="134" y="-381"/>
      <point x="156" y="-403"/>
    </contour>
  </outline>
</glyph>
<glyph name="Oslash" format="1">
  <advance width="728"/>
  <unicode hex="00D8"/>
  <outline>
    <contour>
      <point x="329" y="1477" type="curve" smooth="yes"/>
      <point x="197" y="1477"/>
      <point x="195" y="979"/>
      <point x="195" y="861" type="curve" smooth="yes"/>
      <point x="195" y="852" type="line" smooth="yes"/>
      <point x="195" y="785"/>
      <point x="207" y="581"/>
      <point x="240" y="396" type="curve"/>
      <point x="422" y="1415" type="line"/>
      <point x="397" y="1454"/>
      <point x="366" y="1477"/>
    </contour>
    <contour>
      <point x="471" y="1299" type="curve"/>
      <point x="276" y="239" type="line"/>
      <point x="307" y="132"/>
      <point x="349" y="55"/>
      <point x="405" y="55" type="curve" smooth="yes"/>
      <point x="523" y="55"/>
      <point x="535" y="561"/>
      <point x="535" y="653" type="curve" smooth="yes"/>
      <point x="535" y="749"/>
      <point x="533" y="1087"/>
    </contour>
    <contour>
      <point x="250" y="47" type="curve"/>
      <point x="178" y="-280" type="line"/>
      <point x="133" y="-224" type="line"/>
      <point x="195" y="143" type="line"/>
      <point x="114" y="355"/>
      <point x="103" y="676"/>
      <point x="103" y="799" type="curve" smooth="yes"/>
      <point x="103" y="863"/>
      <point x="100" y="948"/>
      <point x="100" y="1039" type="curve" smooth="yes"/>
      <point x="100" y="1291"/>
      <point x="125" y="1585"/>
      <point x="319" y="1585" type="curve" smooth="yes"/>
      <point x="368" y="1585"/>
      <point x="410" y="1571"/>
      <point x="445" y="1545" type="curve"/>
      <point x="490" y="1799" type="line"/>
      <point x="569" y="1799" type="line"/>
      <point x="505" y="1481" type="line"/>
      <point x="620" y="1313"/>
      <point x="629" y="976"/>
      <point x="629" y="734" type="curve" smooth="yes"/>
      <point x="629" y="692"/>
      <point x="628" y="653"/>
      <point x="628" y="618" type="curve" smooth="yes"/>
      <point x="628" y="531"/>
      <point x="611" y="446"/>
      <point x="610" y="359" type="curve"/>
      <point x="610" y="350" type="line"/>
      <point x="600" y="306"/>
      <point x="597" y="261"/>
      <point x="597" y="215" type="curve" smooth="yes"/>
      <point x="597" y="113"/>
      <point x="521" y="-57"/>
      <point x="401" y="-57" type="curve" smooth="yes"/>
      <point x="333" y="-57"/>
      <point x="291" y="-18"/>
    </contour>
  </outline>
</glyph>
<glyph name="germandbls" format="1">
  <advance width="576"/>
  <unicode hex="00DF"/>
  <outline>
    <contour>
      <point x="338" y="49" type="curve"/>
      <point x="334" y="48"/>
      <point x="327" y="45"/>
      <point x="323" y="45" type="curve" smooth="yes"/>
      <point x="304" y="45"/>
      <point x="274" y="57"/>
      <point x="274" y="81" type="curve" smooth="yes"/>
      <point x="274" y="134"/>
      <point x="421" y="240"/>
      <point x="421" y="409" type="curve" smooth="yes"/>
      <point x="421" y="789"/>
      <point x="243" y="776"/>
      <point x="243" y="854" type="curve" smooth="yes"/>
      <point x="243" y="898"/>
      <point x="361" y="1106"/>
      <point x="361" y="1274" type="curve" smooth="yes"/>
      <point x="361" y="1321"/>
      <point x="340" y="1473"/>
      <point x="271" y="1473" type="curve" smooth="yes"/>
      <point x="193" y="1473"/>
      <point x="173" y="1350"/>
      <point x="173" y="1294" type="curve" smooth="yes"/>
      <point x="173" y="878"/>
      <point x="204" y="463"/>
      <point x="204" y="46" type="curve" smooth="yes"/>
      <point x="204" y="-2"/>
      <point x="195" y="-47"/>
      <point x="138" y="-47" type="curve" smooth="yes"/>
      <point x="103" y="-47"/>
      <point x="78" y="-37"/>
      <point x="78" y="4" type="curve" smooth="yes"/>
      <point x="78" y="182"/>
      <point x="88" y="360"/>
      <point x="88" y="538" type="curve" smooth="yes"/>
      <point x="88" y="775"/>
      <point x="73" y="1012"/>
      <point x="73" y="1249" type="curve" smooth="yes"/>
      <point x="73" y="1375"/>
      <point x="105" y="1585"/>
      <point x="271" y="1585" type="curve" smooth="yes"/>
      <point x="428" y="1585"/>
      <point x="461" y="1367"/>
      <point x="461" y="1249" type="curve" smooth="yes"/>
      <point x="461" y="1109"/>
      <point x="407" y="977"/>
      <point x="335" y="859" type="curve"/>
      <point x="488" y="744"/>
      <point x="520" y="635"/>
      <point x="520" y="444" type="curve" smooth="yes"/>
      <point x="520" y="294"/>
      <point x="457" y="143"/>
    </contour>
  </outline>
</glyph>
<glyph name="eth" format="1">
  <advance width="473"/>
  <unicode hex="00F0"/>
  <outline>
    <contour>
      <point x="254" y="72" type="curve" smooth="yes"/>
      <point x="329" y="72"/>
      <point x="320" y="160"/>
      <point x="324" y="211" type="curve" smooth="yes"/>
      <point x="336" y="370"/>
      <point x="345" y="518"/>
      <point x="345" y="681" type="curve" smooth="yes"/>
      <point x="345" y="761"/>
      <point x="338" y="853"/>
      <point x="286" y="885" type="curve"/>
      <point x="187" y="859"/>
      <point x="187" y="472"/>
      <point x="187" y="390" type="curve" smooth="yes"/>
      <point x="187" y="378"/>
      <point x="186" y="354"/>
      <point x="186" y="325" type="curve" smooth="yes"/>
      <point x="186" y="228"/>
      <point x="193" y="72"/>
    </contour>
    <contour>
      <point x="493" y="1326" type="curve" smooth="yes"/>
      <point x="493" y="1289"/>
      <point x="414" y="1272"/>
      <point x="388" y="1267" type="curve"/>
      <point x="432" y="1062"/>
      <point x="440" y="850"/>
      <point x="440" y="641" type="curve" smooth="yes"/>
      <point x="440" y="522"/>
      <point x="431" y="402"/>
      <point x="431" y="283" type="curve" smooth="yes"/>
      <point x="431" y="159"/>
      <point x="424" y="-15"/>
      <point x="259" y="-15" type="curve" smooth="yes"/>
      <point x="98" y="-15"/>
      <point x="88" y="173"/>
      <point x="88" y="305" type="curve"/>
      <point x="88" y="305"/>
      <point x="85" y="340"/>
      <point x="85" y="400" type="curve" smooth="yes"/>
      <point x="85" y="581"/>
      <point x="109" y="956"/>
      <point x="299" y="956" type="curve" smooth="yes"/>
      <point x="307" y="956"/>
      <point x="316" y="955"/>
      <point x="325" y="954" type="curve"/>
      <point x="312" y="1053"/>
      <point x="298" y="1153"/>
      <point x="277" y="1251" type="curve"/>
      <point x="221" y="1245"/>
      <point x="164" y="1242"/>
      <point x="108" y="1242" type="curve" smooth="yes"/>
      <point x="95" y="1242"/>
      <point x="91" y="1265"/>
      <point x="91" y="1272" type="curve" smooth="yes"/>
      <point x="91" y="1319"/>
      <point x="225" y="1336"/>
      <point x="257" y="1340" type="curve"/>
      <point x="248" y="1374"/>
      <point x="229" y="1450"/>
      <point x="201" y="1473" type="curve"/>
      <point x="168" y="1478"/>
      <point x="119" y="1499"/>
      <point x="119" y="1539" type="curve" smooth="yes"/>
      <point x="119" y="1565"/>
      <point x="149" y="1582"/>
      <point x="172" y="1582" type="curve" smooth="yes"/>
      <point x="285" y="1582"/>
      <point x="340" y="1441"/>
      <point x="366" y="1351" type="curve"/>
      <point x="403" y="1353"/>
      <point x="439" y="1355"/>
      <point x="476" y="1355" type="curve" smooth="yes"/>
      <point x="489" y="1355"/>
      <point x="493" y="1333"/>
    </contour>
  </outline>
</glyph>
<glyph name="divide" format="1">
  <advance width="684"/>
  <unicode hex="00F7"/>
  <outline>
    <contour>
      <point x="411" y="428" type="curve" smooth="yes"/>
      <point x="411" y="389"/>
      <point x="380" y="369"/>
      <point x="344" y="369" type="curve" smooth="yes"/>
      <point x="304" y="369"/>
      <point x="270" y="398"/>
      <point x="270" y="439" type="curve" smooth="yes"/>
      <point x="270" y="477"/>
      <point x="300" y="510"/>
      <point x="339" y="510" type="curve" smooth="yes"/>
      <point x="381" y="510"/>
      <point x="411" y="467"/>
    </contour>
    <contour>
      <point x="342" y="789" type="curve" smooth="yes"/>
      <point x="303" y="789"/>
      <point x="267" y="823"/>
      <point x="267" y="862" type="curve" smooth="yes"/>
      <point x="267" y="899"/>
      <point x="304" y="930"/>
      <point x="340" y="930" type="curve" smooth="yes"/>
      <point x="382" y="930"/>
      <point x="411" y="893"/>
      <point x="411" y="853" type="curve" smooth="yes"/>
      <point x="411" y="817"/>
      <point x="377" y="789"/>
    </contour>
    <contour>
      <point x="57" y="655" type="curve" smooth="yes"/>
      <point x="57" y="683"/>
      <point x="75" y="701"/>
      <point x="103" y="701" type="curve" smooth="yes"/>
      <point x="404" y="701" type="line" smooth="yes"/>
      <point x="446" y="701"/>
      <point x="488" y="708"/>
      <point x="530" y="708" type="curve" smooth="yes"/>
      <point x="572" y="708"/>
      <point x="629" y="701"/>
      <point x="629" y="647" type="curve" smooth="yes"/>
      <point x="629" y="613"/>
      <point x="601" y="600"/>
      <point x="571" y="600" type="curve" smooth="yes"/>
      <point x="427" y="600"/>
      <point x="282" y="590"/>
      <point x="139" y="590" type="curve" smooth="yes"/>
      <point x="94" y="590"/>
      <point x="57" y="604"/>
    </contour>
  </outline>
</glyph>
<glyph name="thorn" format="1">
  <advance width="495"/>
  <unicode hex="00FE"/>
  <outline>
    <contour>
      <point x="337" y="828" type="curve" smooth="yes"/>
      <point x="337" y="998"/>
      <point x="313" y="1027"/>
      <point x="184" y="1129" type="curve"/>
      <point x="178" y="1129" type="line"/>
      <point x="178" y="943"/>
      <point x="182" y="757"/>
      <point x="182" y="571" type="curve"/>
      <point x="276" y="635"/>
      <point x="337" y="710"/>
    </contour>
    <contour>
      <point x="64" y="1178" type="curve"/>
      <point x="62" y="1487" type="line" smooth="yes"/>
      <point x="62" y="1522"/>
      <point x="74" y="1548"/>
      <point x="113" y="1548" type="curve" smooth="yes"/>
      <point x="175" y="1548"/>
      <point x="188" y="1463"/>
      <point x="188" y="1380" type="curve" smooth="yes"/>
      <point x="188" y="1318"/>
      <point x="181" y="1258"/>
      <point x="181" y="1233" type="curve"/>
      <point x="362" y="1207"/>
      <point x="443" y="1008"/>
      <point x="443" y="845" type="curve" smooth="yes"/>
      <point x="443" y="670"/>
      <point x="345" y="540"/>
      <point x="187" y="472" type="curve"/>
      <point x="188" y="339"/>
      <point x="203" y="207"/>
      <point x="203" y="74" type="curve" smooth="yes"/>
      <point x="203" y="29"/>
      <point x="186" y="-11"/>
      <point x="135" y="-11" type="curve" smooth="yes"/>
      <point x="99" y="-11"/>
      <point x="86" y="28"/>
      <point x="86" y="58" type="curve" smooth="yes"/>
      <point x="86" y="432"/>
      <point x="64" y="805"/>
    </contour>
  </outline>
</glyph>
<glyph name="hbar" format="1">
  <advance width="571"/>
  <unicode hex="0127"/>
  <outline>
    <contour>
      <point x="374" y="738" type="curve" smooth="yes"/>
      <point x="374" y="847"/>
      <point x="365" y="957"/>
      <point x="358" y="1066" type="curve"/>
      <point x="332" y="1065"/>
      <point x="302" y="1065"/>
      <point x="271" y="1065" type="curve" smooth="yes"/>
      <point x="244" y="1065"/>
      <point x="216" y="1064"/>
      <point x="189" y="1062" type="curve"/>
      <point x="186" y="949"/>
      <point x="183" y="835"/>
      <point x="183" y="722" type="curve"/>
      <point x="220" y="712"/>
      <point x="258" y="712"/>
      <point x="295" y="712" type="curve" smooth="yes"/>
      <point x="369" y="712" type="line"/>
      <point x="373" y="719"/>
      <point x="374" y="729"/>
    </contour>
    <contour>
      <point x="485" y="1084" type="curve" smooth="yes"/>
      <point x="485" y="1069"/>
      <point x="479" y="1063"/>
      <point x="470" y="1062" type="curve"/>
      <point x="479" y="650"/>
      <point x="503" y="178"/>
      <point x="505" y="62" type="curve" smooth="yes"/>
      <point x="505" y="20"/>
      <point x="468" y="0"/>
      <point x="434" y="0" type="curve" smooth="yes"/>
      <point x="407" y="0"/>
      <point x="383" y="13"/>
      <point x="382" y="38" type="curve" smooth="yes"/>
      <point x="378" y="165"/>
      <point x="371" y="366"/>
      <point x="371" y="548" type="curve"/>
      <point x="367" y="556" type="line"/>
      <point x="368" y="576"/>
      <point x="370" y="595"/>
      <point x="370" y="615" type="curve" smooth="yes"/>
      <point x="370" y="621"/>
      <point x="369" y="628"/>
      <point x="369" y="634" type="curve"/>
      <point x="358" y="636" type="line"/>
      <point x="345" y="633"/>
      <point x="333" y="632"/>
      <point x="321" y="632" type="curve" smooth="yes"/>
      <point x="276" y="632"/>
      <point x="236" y="649"/>
      <point x="189" y="651" type="curve"/>
      <point x="188" y="576"/>
      <point x="183" y="500"/>
      <point x="183" y="425" type="curve"/>
      <point x="189" y="416" type="line"/>
      <point x="189" y="304"/>
      <point x="201" y="191"/>
      <point x="201" y="79" type="curve" smooth="yes"/>
      <point x="201" y="44"/>
      <point x="183" y="5"/>
      <point x="143" y="5" type="curve" smooth="yes"/>
      <point x="83" y="5"/>
      <point x="71" y="134"/>
      <point x="71" y="283" type="curve" smooth="yes"/>
      <point x="71" y="391"/>
      <point x="77" y="509"/>
      <point x="77" y="595" type="curve" smooth="yes"/>
      <point x="77" y="643"/>
      <point x="75" y="681"/>
      <point x="69" y="702" type="curve"/>
      <point x="74" y="712" type="line"/>
      <point x="77" y="752"/>
      <point x="82" y="792"/>
      <point x="82" y="832" type="curve" smooth="yes"/>
      <point x="82" y="909"/>
      <point x="78" y="986"/>
      <point x="75" y="1064" type="curve"/>
      <point x="55" y="1068"/>
      <point x="43" y="1076"/>
      <point x="43" y="1091" type="curve" smooth="yes"/>
      <point x="43" y="1109"/>
      <point x="55" y="1121"/>
      <point x="72" y="1127" type="curve"/>
      <point x="69" y="1182"/>
      <point x="68" y="1238"/>
      <point x="68" y="1294" type="curve" smooth="yes"/>
      <point x="68" y="1325"/>
      <point x="94" y="1355"/>
      <point x="126" y="1355" type="curve" smooth="yes"/>
      <point x="184" y="1355"/>
      <point x="191" y="1276"/>
      <point x="191" y="1233" type="curve" smooth="yes"/>
      <point x="191" y="1201"/>
      <point x="191" y="1169"/>
      <point x="190" y="1137" type="curve"/>
      <point x="215" y="1138"/>
      <point x="245" y="1139"/>
      <point x="277" y="1139" type="curve" smooth="yes"/>
      <point x="302" y="1139"/>
      <point x="328" y="1138"/>
      <point x="353" y="1137" type="curve"/>
      <point x="349" y="1198"/>
      <point x="347" y="1259"/>
      <point x="347" y="1320" type="curve" smooth="yes"/>
      <point x="347" y="1351"/>
      <point x="376" y="1374"/>
      <point x="406" y="1374" type="curve" smooth="yes"/>
      <point x="427" y="1374"/>
      <point x="446" y="1362"/>
      <point x="466" y="1356" type="curve"/>
      <point x="466" y="1280"/>
      <point x="467" y="1197"/>
      <point x="469" y="1110" type="curve"/>
      <point x="479" y="1103"/>
      <point x="485" y="1094"/>
    </contour>
  </outline>
</glyph>
<glyph name="dotlessi" format="1">
  <advance width="499"/>
  <unicode hex="0131"/>
  <outline>
    <contour>
      <point x="298" y="184" type="line"/>
      <point x="296" y="185" type="line"/>
      <point x="296" y="166"/>
      <point x="295" y="147"/>
      <point x="306" y="131" type="curve"/>
      <point x="322" y="128" type="line"/>
      <point x="337" y="128"/>
      <point x="358" y="130"/>
      <point x="381" y="130" type="curve" smooth="yes"/>
      <point x="422" y="130"/>
      <point x="465" y="122"/>
      <point x="465" y="79" type="curve" smooth="yes"/>
      <point x="465" y="43"/>
      <point x="432" y="16"/>
      <point x="397" y="16" type="curve" smooth="yes"/>
      <point x="374" y="16"/>
      <point x="352" y="23"/>
      <point x="329" y="23" type="curve" smooth="yes"/>
      <point x="313" y="23"/>
      <point x="288" y="0"/>
      <point x="251" y="0" type="curve" smooth="yes"/>
      <point x="229" y="0"/>
      <point x="205" y="4"/>
      <point x="188" y="20" type="curve"/>
      <point x="180" y="19"/>
      <point x="171" y="18"/>
      <point x="163" y="18" type="curve" smooth="yes"/>
      <point x="132" y="18"/>
      <point x="102" y="26"/>
      <point x="87" y="55" type="curve"/>
      <point x="87" y="78"/>
      <point x="98" y="100"/>
      <point x="119" y="110" type="curve"/>
      <point x="126" y="118" type="line"/>
      <point x="184" y="118" type="line"/>
      <point x="185" y="127"/>
      <point x="188" y="136"/>
      <point x="188" y="145" type="curve" smooth="yes"/>
      <point x="188" y="290"/>
      <point x="174" y="435"/>
      <point x="174" y="580" type="curve" smooth="yes"/>
      <point x="174" y="732"/>
      <point x="185" y="884"/>
      <point x="185" y="1036" type="curve" smooth="yes"/>
      <point x="185" y="1109"/>
      <point x="182" y="1182"/>
      <point x="175" y="1254" type="curve"/>
      <point x="136" y="1256" type="line" smooth="yes"/>
      <point x="121" y="1257"/>
      <point x="105" y="1254"/>
      <point x="89" y="1254" type="curve" smooth="yes"/>
      <point x="55" y="1254"/>
      <point x="25" y="1262"/>
      <point x="25" y="1309" type="curve" smooth="yes"/>
      <point x="25" y="1353"/>
      <point x="87" y="1356"/>
      <point x="126" y="1356" type="curve" smooth="yes"/>
      <point x="143" y="1356" type="line" smooth="yes"/>
      <point x="199" y="1356"/>
      <point x="406" y="1355"/>
      <point x="406" y="1273" type="curve" smooth="yes"/>
      <point x="406" y="1263"/>
      <point x="398" y="1244"/>
      <point x="394" y="1235" type="curve"/>
      <point x="324" y="1230" type="line"/>
      <point x="289" y="1242" type="line"/>
      <point x="295" y="1186"/>
      <point x="297" y="1129"/>
      <point x="297" y="1072" type="curve" smooth="yes"/>
      <point x="297" y="942"/>
      <point x="286" y="811"/>
      <point x="286" y="681" type="curve" smooth="yes"/>
      <point x="286" y="536"/>
      <point x="301" y="391"/>
      <point x="301" y="246" type="curve"/>
    </contour>
  </outline>
</glyph>
<glyph name="ring" format="1">
  <advance width="685"/>
  <unicode hex="02DA"/>
  <outline>
    <contour>
      <point x="80" y="395" type="curve" smooth="yes"/>
      <point x="80" y="531"/>
      <point x="171" y="634"/>
      <point x="312" y="634" type="curve" smooth="yes"/>
      <point x="549" y="634"/>
      <point x="606" y="485"/>
      <point x="606" y="397" type="curve" smooth="yes"/>
      <point x="606" y="313"/>
      <point x="557" y="102"/>
      <point x="312" y="102" type="curve" smooth="yes"/>
      <point x="121" y="102"/>
      <point x="80" y="281"/>
    </contour>
    <contour>
      <point x="322" y="565" type="curve" smooth="yes"/>
      <point x="192" y="565"/>
      <point x="156" y="437"/>
      <point x="156" y="329" type="curve" smooth="yes"/>
      <point x="156" y="271"/>
      <point x="230" y="179"/>
      <point x="320" y="179" type="curve" smooth="yes"/>
      <point x="502" y="179"/>
      <point x="538" y="332"/>
      <point x="538" y="393" type="curve" smooth="yes"/>
      <point x="538" y="456"/>
      <point x="496" y="565"/>
    </contour>
  </outline>
</glyph>
<glyph name="hungarumlaut" format="1">
  <advance width="684"/>
  <unicode hex="02DD"/>
  <outline>
    <contour>
      <point x="150" y="0" type="curve"/>
      <point x="150" y="13" type="line"/>
      <point x="155" y="79"/>
      <point x="414" y="440"/>
      <point x="452" y="440" type="curve" smooth="yes"/>
      <point x="477" y="440"/>
      <point x="500" y="424"/>
      <point x="500" y="402" type="curve" smooth="yes"/>
      <point x="500" y="303"/>
      <point x="210" y="17"/>
    </contour>
    <contour>
      <point x="428" y="13" type="curve"/>
      <point x="414" y="13"/>
      <point x="408" y="26"/>
      <point x="408" y="40" type="curve" smooth="yes"/>
      <point x="408" y="90"/>
      <point x="745" y="440"/>
      <point x="792" y="440" type="curve" smooth="yes"/>
      <point x="822" y="440"/>
      <point x="847" y="416"/>
      <point x="854" y="392" type="curve"/>
      <point x="826" y="318"/>
      <point x="494" y="49"/>
    </contour>
  </outline>
</glyph>
<glyph name="uni0311" format="1">
  <advance width="575"/>
  <unicode hex="0311"/>
  <outline>
    <contour>
      <point x="453" y="961" type="curve"/>
      <point x="455" y="954"/>
      <point x="462" y="934"/>
      <point x="462" y="928" type="curve" smooth="yes"/>
      <point x="462" y="899"/>
      <point x="436" y="876"/>
      <point x="408" y="876" type="curve" smooth="yes"/>
      <point x="357" y="876"/>
      <point x="350" y="910"/>
      <point x="350" y="953" type="curve" smooth="yes"/>
      <point x="350" y="975"/>
      <point x="330" y="1047"/>
      <point x="303" y="1047" type="curve" smooth="yes"/>
      <point x="260" y="1047" type="line"/>
      <point x="204" y="1008"/>
      <point x="222" y="867"/>
      <point x="151" y="867" type="curve"/>
      <point x="113" y="899" type="line"/>
      <point x="113" y="1010"/>
      <point x="152" y="1142"/>
      <point x="286" y="1142" type="curve" smooth="yes"/>
      <point x="395" y="1142"/>
      <point x="421" y="1064"/>
      <point x="458" y="978" type="curve"/>
      <point x="455" y="973"/>
      <point x="455" y="967"/>
    </contour>
  </outline>
</glyph>
<glyph name="bullet" format="1">
  <advance width="637"/>
  <unicode hex="2022"/>
  <outline>
    <contour>
      <point x="105" y="727" type="curve" smooth="yes"/>
      <point x="105" y="814"/>
      <point x="144" y="878"/>
      <point x="174" y="920" type="curve"/>
      <point x="187" y="947"/>
      <point x="271" y="1011"/>
      <point x="301" y="1011" type="curve" smooth="yes"/>
      <point x="491" y="1011"/>
      <point x="537" y="866"/>
      <point x="537" y="779" type="curve" smooth="yes"/>
      <point x="537" y="694"/>
      <point x="500" y="485"/>
      <point x="310" y="485" type="curve" smooth="yes"/>
      <point x="196" y="485"/>
      <point x="106" y="595"/>
      <point x="106" y="665" type="curve" smooth="yes"/>
      <point x="106" y="687"/>
      <point x="105" y="705"/>
    </contour>
  </outline>
</glyph>
<glyph name="guilsinglright" format="1">
  <advance width="523"/>
  <unicode hex="203A"/>
  <outline>
    <contour>
      <point x="130" y="-19" type="line" smooth="yes"/>
      <point x="126" y="-19" type="line" smooth="yes"/>
      <point x="113" y="-19"/>
      <point x="101" y="-23"/>
      <point x="88" y="-23" type="curve" smooth="yes"/>
      <point x="51" y="-23"/>
      <point x="35" y="19"/>
      <point x="34" y="49" type="curve"/>
      <point x="59" y="69" type="line"/>
      <point x="95" y="136"/>
      <point x="369" y="680"/>
      <point x="369" y="702" type="curve" smooth="yes"/>
      <point x="369" y="908"/>
      <point x="114" y="1202"/>
      <point x="112" y="1411" type="curve"/>
      <point x="157" y="1446" type="line"/>
      <point x="167" y="1444" type="line"/>
      <point x="241" y="1410"/>
      <point x="243" y="1324"/>
      <point x="263" y="1255" type="curve" smooth="yes"/>
      <point x="301" y="1123"/>
      <point x="484" y="803"/>
      <point x="487" y="698" type="curve"/>
    </contour>
  </outline>
</glyph>
<glyph name="fraction" format="1">
  <advance width="512"/>
  <unicode hex="2044"/>
  <outline>
    <contour>
      <point x="37" y="30" type="curve" smooth="yes"/>
      <point x="37" y="340"/>
      <point x="297" y="1099"/>
      <point x="366" y="1453" type="curve" smooth="yes"/>
      <point x="372" y="1483"/>
      <point x="378" y="1553"/>
      <point x="423" y="1553" type="curve" smooth="yes"/>
      <point x="451" y="1553"/>
      <point x="478" y="1533"/>
      <point x="478" y="1503" type="curve" smooth="yes"/>
      <point x="478" y="1437"/>
      <point x="451" y="1374"/>
      <point x="436" y="1311" type="curve" smooth="yes"/>
      <point x="357" y="972"/>
      <point x="279" y="632"/>
      <point x="205" y="292" type="curve" smooth="yes"/>
      <point x="192" y="233"/>
      <point x="158" y="-31"/>
      <point x="83" y="-31" type="curve" smooth="yes"/>
      <point x="75" y="-31" type="line"/>
      <point x="54" y="-18"/>
      <point x="37" y="5"/>
    </contour>
  </outline>
</glyph>
<glyph name="minus" format="1">
  <advance width="684"/>
  <unicode hex="2212"/>
  <outline>
    <contour>
      <point x="57" y="655" type="curve" smooth="yes"/>
      <point x="57" y="683"/>
      <point x="75" y="701"/>
      <point x="103" y="701" type="curve" smooth="yes"/>
      <point x="404" y="701" type="line" smooth="yes"/>
      <point x="446" y="701"/>
      <point x="488" y="708"/>
      <point x="530" y="708" type="curve" smooth="yes"/>
      <point x="572" y="708"/>
      <point x="629" y="701"/>
      <point x="629" y="647" type="curve" smooth="yes"/>
      <point x="629" y="613"/>
      <point x="601" y="600"/>
      <point x="571" y="600" type="curve" smooth="yes"/>
      <point x="427" y="600"/>
      <point x="282" y="590"/>
      <point x="139" y="590" type="curve" smooth="yes"/>
      <point x="94" y="590"/>
      <point x="57" y="604"/>
    </contour>
  </outline>
</glyph>
<glyph name="commaaccent" format="1">
  <advance width="462"/>
  <outline>
    <contour>
      <point x="151" y="-550" type="curve" smooth="yes"/>
      <point x="127" y="-550"/>
      <point x="117" y="-544"/>
      <point x="117" y="-527" type="curve"/>
      <point x="117" y="-527"/>
      <point x="183" y="-174"/>
      <point x="302" y="-174" type="curve"/>
      <point x="316" y="-185"/>
      <point x="358" y="-183"/>
      <point x="358" y="-215" type="curve" smooth="yes"/>
      <point x="358" y="-317"/>
      <point x="185" y="-550"/>
    </contour>
  </outline>
</glyph>
